<svg xmlns="http://www.w3.org/2000/svg" xmlns:xlink="http://www.w3.org/1999/xlink" width="400" zoomAndPan="magnify" viewBox="0 0 300 299.999988" height="400" preserveAspectRatio="xMidYMid meet" version="1.0"><defs><g/><clipPath id="8444558ab5"><path d="M 22.027344 22.027344 L 277.972656 22.027344 L 277.972656 277.972656 L 22.027344 277.972656 Z M 22.027344 22.027344 " clip-rule="nonzero"/></clipPath><clipPath id="9f1c00baf5"><path d="M 150 22.027344 C 79.324219 22.027344 22.027344 79.324219 22.027344 150 C 22.027344 220.675781 79.324219 277.972656 150 277.972656 C 220.675781 277.972656 277.972656 220.675781 277.972656 150 C 277.972656 79.324219 220.675781 22.027344 150 22.027344 Z M 150 22.027344 " clip-rule="nonzero"/></clipPath><clipPath id="fcbc36acfe"><path d="M 120.304688 187.628906 L 180.183594 187.628906 L 180.183594 245.03125 L 120.304688 245.03125 Z M 120.304688 187.628906 " clip-rule="nonzero"/></clipPath><clipPath id="849ddab68a"><path d="M 122.300781 217.390625 L 177.988281 217.390625 L 177.988281 245.03125 L 122.300781 245.03125 Z M 122.300781 217.390625 " clip-rule="nonzero"/></clipPath><clipPath id="70625fa6c2"><path d="M 183.574219 196.019531 L 212.609375 196.019531 L 212.609375 230.175781 L 183.574219 230.175781 Z M 183.574219 196.019531 " clip-rule="nonzero"/></clipPath><clipPath id="bbc9c18bd2"><path d="M 183.574219 196.617188 L 212.609375 196.617188 L 212.609375 230.175781 L 183.574219 230.175781 Z M 183.574219 196.617188 " clip-rule="nonzero"/></clipPath><clipPath id="1e72fb8ce7"><path d="M 87.371094 196 L 117 196 L 117 231 L 87.371094 231 Z M 87.371094 196 " clip-rule="nonzero"/></clipPath><clipPath id="f396235423"><path d="M 113 122.035156 L 117 122.035156 L 117 126 L 113 126 Z M 113 122.035156 " clip-rule="nonzero"/></clipPath><clipPath id="550e32daff"><path d="M 95 122.035156 L 105 122.035156 L 105 138 L 95 138 Z M 95 122.035156 " clip-rule="nonzero"/></clipPath><clipPath id="06717f3cda"><path d="M 169.730469 51.140625 L 220.730469 51.140625 L 220.730469 111.851562 L 169.730469 111.851562 Z M 169.730469 51.140625 " clip-rule="nonzero"/></clipPath></defs><rect x="-30" width="360" fill="#ffffff" y="-29.999999" height="359.999986" fill-opacity="1"/><rect x="-30" width="360" fill="#d8ebff" y="-29.999999" height="359.999986" fill-opacity="1"/><g clip-path="url(#8444558ab5)"><g clip-path="url(#9f1c00baf5)"><path fill="#ffffff" d="M 22.027344 22.027344 L 277.972656 22.027344 L 277.972656 277.972656 L 22.027344 277.972656 Z M 22.027344 22.027344 " fill-opacity="1" fill-rule="nonzero"/></g></g><path fill="#094f94" d="M 159.5 212.15625 L 165.921875 135.796875 C 166.34375 130.777344 162.617188 126.363281 157.601562 125.941406 L 150.980469 125.382812 C 145.964844 124.960938 141.558594 128.6875 141.136719 133.707031 L 134.714844 210.070312 C 134.292969 215.089844 138.019531 219.5 143.035156 219.921875 L 149.65625 220.480469 C 154.671875 220.902344 159.082031 217.175781 159.5 212.15625 " fill-opacity="1" fill-rule="nonzero"/><path fill="#094f94" d="M 186.027344 211.789062 L 113.15625 211.789062 L 113.15625 200.398438 L 186.027344 200.398438 L 186.027344 211.789062 " fill-opacity="1" fill-rule="nonzero"/><g clip-path="url(#fcbc36acfe)"><path fill="#e0ecf8" d="M 179.824219 187.6875 L 120.558594 187.6875 C 120.558594 187.6875 118.214844 220.097656 129.242188 233.246094 C 139.453125 245.417969 148.851562 245.117188 150.191406 245.003906 C 151.53125 245.117188 160.929688 245.417969 171.140625 233.246094 C 182.167969 220.097656 179.824219 187.6875 179.824219 187.6875 " fill-opacity="1" fill-rule="nonzero"/></g><g clip-path="url(#849ddab68a)"><path fill="#c7dae9" d="M 171.769531 229.957031 C 161.253906 242.128906 151.570312 241.824219 150.191406 241.714844 C 148.8125 241.824219 139.128906 242.128906 128.613281 229.957031 C 125.808594 226.710938 123.847656 222.292969 122.476562 217.480469 C 123.800781 223.542969 125.910156 229.273438 129.242188 233.246094 C 139.453125 245.417969 148.851562 245.117188 150.191406 245.003906 C 151.53125 245.117188 160.929688 245.417969 171.140625 233.246094 C 174.472656 229.273438 176.582031 223.542969 177.90625 217.480469 C 176.535156 222.292969 174.574219 226.710938 171.769531 229.957031 " fill-opacity="1" fill-rule="nonzero"/></g><path fill="#c7dae9" d="M 179.925781 189.683594 L 156.222656 187.6875 L 120.558594 187.6875 C 120.558594 187.6875 120.503906 188.46875 120.449219 189.828125 C 124.367188 194.207031 129.707031 197.113281 135.78125 197.625 L 161.433594 199.785156 C 168.5 200.378906 175.136719 197.621094 180.011719 192.742188 C 179.992188 191.527344 179.960938 190.496094 179.925781 189.683594 " fill-opacity="1" fill-rule="nonzero"/><path fill="#c7dae9" d="M 127.855469 231.390625 C 130.257812 227.90625 131.820312 222.792969 131.9375 217.066406 L 168.53125 217.066406 C 168.652344 222.757812 170.195312 227.84375 172.570312 231.324219 C 172.84375 230.914062 173.105469 230.492188 173.359375 230.054688 C 171.257812 226.695312 169.929688 221.800781 169.929688 216.355469 C 169.929688 206.320312 174.433594 198.144531 179.996094 198.027344 C 180.007812 197.542969 180.015625 197.074219 180.019531 196.617188 C 173.808594 196.707031 168.75 205.148438 168.53125 215.65625 L 131.9375 215.65625 C 131.722656 205.097656 126.613281 196.621094 120.363281 196.613281 C 120.367188 197.070312 120.375 197.539062 120.386719 198.023438 C 125.988281 198.054688 130.542969 206.265625 130.542969 216.355469 C 130.542969 221.839844 129.195312 226.765625 127.066406 230.128906 C 127.320312 230.558594 127.585938 230.980469 127.855469 231.390625 " fill-opacity="1" fill-rule="nonzero"/><path fill="#c7dae9" d="M 144.660156 216.359375 C 144.660156 213.207031 147.210938 210.652344 150.363281 210.652344 C 153.507812 210.652344 156.0625 213.207031 156.0625 216.359375 C 156.0625 219.511719 153.507812 222.066406 150.363281 222.066406 C 147.210938 222.066406 144.660156 219.511719 144.660156 216.359375 " fill-opacity="1" fill-rule="nonzero"/><path fill="#094f94" d="M 146.414062 216.359375 C 146.414062 214.179688 148.179688 212.410156 150.363281 212.410156 C 152.539062 212.410156 154.308594 214.179688 154.308594 216.359375 C 154.308594 218.542969 152.539062 220.308594 150.363281 220.308594 C 148.179688 220.308594 146.414062 218.542969 146.414062 216.359375 " fill-opacity="1" fill-rule="nonzero"/><g clip-path="url(#70625fa6c2)"><path fill="#e0ecf8" d="M 183.601562 200.085938 L 183.785156 210.050781 C 183.832031 212.816406 185.261719 215.367188 187.589844 216.855469 L 207.363281 229.480469 C 209.828125 231.054688 213.015625 228.996094 212.566406 226.105469 C 211.371094 218.394531 206.636719 205.761719 189.367188 196.585938 C 186.726562 195.183594 183.546875 197.09375 183.601562 200.085938 " fill-opacity="1" fill-rule="nonzero"/></g><g clip-path="url(#bbc9c18bd2)"><path fill="#c7dae9" d="M 209.050781 226.105469 L 189.277344 213.480469 C 186.949219 211.992188 185.519531 209.441406 185.46875 206.679688 L 185.289062 196.816406 C 184.273438 197.511719 183.578125 198.675781 183.601562 200.085938 L 183.785156 210.050781 C 183.832031 212.816406 185.261719 215.367188 187.589844 216.855469 L 207.363281 229.480469 C 209.804688 231.039062 212.949219 229.035156 212.574219 226.1875 C 211.546875 226.773438 210.21875 226.851562 209.050781 226.105469 " fill-opacity="1" fill-rule="nonzero"/></g><g clip-path="url(#1e72fb8ce7)"><path fill="#e0ecf8" d="M 116.78125 200.085938 L 116.597656 210.050781 C 116.550781 212.816406 115.121094 215.367188 112.792969 216.855469 L 93.015625 229.480469 C 90.554688 231.054688 87.367188 228.996094 87.816406 226.105469 C 89.011719 218.394531 93.742188 205.761719 111.019531 196.585938 C 113.65625 195.183594 116.835938 197.09375 116.78125 200.085938 " fill-opacity="1" fill-rule="nonzero"/><path fill="#c7dae9" d="M 91.332031 226.105469 L 111.105469 213.480469 C 113.433594 211.992188 114.863281 209.441406 114.914062 206.679688 L 115.09375 196.816406 C 116.109375 197.511719 116.804688 198.675781 116.78125 200.085938 L 116.597656 210.050781 C 116.550781 212.816406 115.121094 215.367188 112.792969 216.855469 L 93.015625 229.480469 C 90.578125 231.039062 87.433594 229.035156 87.808594 226.1875 C 88.835938 226.773438 90.164062 226.851562 91.332031 226.105469 " fill-opacity="1" fill-rule="nonzero"/></g><path fill="#c7dae9" d="M 114.433594 150.648438 L 114.5 123.78125 L 115.234375 123.726562 L 118.792969 151.015625 L 114.433594 150.648438 " fill-opacity="1" fill-rule="nonzero"/><g clip-path="url(#f396235423)"><path fill="#c7dae9" d="M 113.160156 123.730469 C 113.242188 122.757812 114.09375 122.039062 115.066406 122.121094 C 116.035156 122.203125 116.753906 123.054688 116.671875 124.023438 C 116.589844 124.996094 115.738281 125.714844 114.769531 125.632812 C 113.800781 125.550781 113.082031 124.699219 113.160156 123.730469 " fill-opacity="1" fill-rule="nonzero"/></g><path fill="#c7dae9" d="M 189.417969 156.960938 L 193.839844 130.460938 L 193.125 130.285156 L 185.0625 156.59375 L 189.417969 156.960938 " fill-opacity="1" fill-rule="nonzero"/><path fill="#c7dae9" d="M 195.167969 130.632812 C 195.25 129.664062 194.527344 128.8125 193.558594 128.730469 C 192.589844 128.648438 191.738281 129.367188 191.65625 130.335938 C 191.574219 131.308594 192.296875 132.160156 193.265625 132.242188 C 194.234375 132.324219 195.085938 131.601562 195.167969 130.632812 " fill-opacity="1" fill-rule="nonzero"/><path fill="#094f94" d="M 190.207031 155.496094 L 113.902344 149.074219 C 108.886719 148.648438 104.480469 152.375 104.058594 157.394531 L 103.5 164.023438 C 103.078125 169.042969 106.804688 173.453125 111.816406 173.875 L 188.121094 180.300781 C 193.136719 180.722656 197.542969 176.996094 197.964844 171.976562 L 198.523438 165.347656 C 198.945312 160.328125 195.222656 155.917969 190.207031 155.496094 " fill-opacity="1" fill-rule="nonzero"/><path fill="#e0ecf8" d="M 166.941406 135.507812 L 140.175781 133.257812 C 126.195312 132.078125 113.90625 142.46875 112.730469 156.460938 L 111.894531 166.398438 C 110.71875 180.390625 121.101562 192.6875 135.082031 193.863281 L 161.847656 196.117188 C 175.828125 197.292969 188.117188 186.90625 189.292969 172.914062 L 190.128906 162.976562 C 191.304688 148.984375 180.921875 136.6875 166.941406 135.507812 " fill-opacity="1" fill-rule="nonzero"/><path fill="#c7dae9" d="M 180.875 159.546875 L 180.746094 158.445312 C 180.328125 154.890625 178.414062 151.667969 175.5 149.597656 C 172.585938 147.527344 168.914062 146.785156 165.425781 147.5625 L 165.03125 147.648438 C 156.515625 149.542969 147.757812 148.789062 139.695312 145.460938 C 136.382812 144.09375 132.628906 144.199219 129.394531 145.75 C 126.164062 147.300781 123.730469 150.167969 122.722656 153.609375 L 122.425781 154.625 C 120.417969 161.476562 121.578125 168.785156 125.613281 174.675781 C 129.648438 180.570312 136.039062 184.289062 143.152344 184.890625 L 155.386719 185.917969 C 162.5 186.519531 169.425781 183.917969 174.386719 178.78125 C 179.347656 173.648438 181.710938 166.636719 180.875 159.546875 " fill-opacity="1" fill-rule="nonzero"/><path fill="#2e3033" d="M 178.53125 159.820312 L 178.402344 158.722656 C 177.6875 152.65625 171.894531 148.542969 165.9375 149.867188 L 165.542969 149.957031 C 156.601562 151.945312 147.265625 151.140625 138.796875 147.644531 C 133.140625 145.308594 126.710938 148.398438 124.988281 154.273438 L 124.691406 155.289062 C 120.898438 168.234375 129.917969 181.40625 143.347656 182.535156 L 155.585938 183.566406 C 169.019531 184.695312 180.109375 173.21875 178.53125 159.820312 " fill-opacity="1" fill-rule="nonzero"/><path fill="#ffffff" d="M 120.417969 146.152344 C 120.417969 146.152344 129.039062 134.851562 134.261719 137.097656 C 139.488281 139.34375 126.9375 142.640625 120.417969 146.152344 " fill-opacity="1" fill-rule="nonzero"/><path fill="#ffffff" d="M 141.3125 137.507812 C 141.242188 138.359375 140.492188 138.996094 139.636719 138.921875 C 138.78125 138.851562 138.148438 138.101562 138.222656 137.246094 C 138.292969 136.390625 139.042969 135.757812 139.898438 135.828125 C 140.75 135.902344 141.386719 136.652344 141.3125 137.507812 " fill-opacity="1" fill-rule="nonzero"/><path fill="#ffffff" d="M 110.976562 198.933594 C 110.976562 198.933594 97.027344 207.382812 99.554688 209.34375 C 102.082031 211.304688 110.976562 198.933594 110.976562 198.933594 " fill-opacity="1" fill-rule="nonzero"/><path fill="#ffffff" d="M 208.769531 220.457031 C 208.769531 220.457031 202.195312 205.523438 199.929688 207.777344 C 197.660156 210.03125 208.769531 220.457031 208.769531 220.457031 " fill-opacity="1" fill-rule="nonzero"/><path fill="#ffde1a" d="M 142.925781 163.789062 C 142.875 163.789062 142.828125 163.785156 142.777344 163.78125 L 135.792969 163.191406 C 134.820312 163.109375 134.097656 162.257812 134.179688 161.28125 C 134.261719 160.308594 135.117188 159.582031 136.089844 159.667969 L 143.074219 160.253906 C 144.046875 160.335938 144.769531 161.195312 144.6875 162.167969 C 144.609375 163.089844 143.835938 163.789062 142.925781 163.789062 " fill-opacity="1" fill-rule="nonzero"/><path fill="#ffde1a" d="M 166.414062 165.765625 C 166.367188 165.765625 166.316406 165.765625 166.265625 165.757812 L 159.28125 165.171875 C 158.308594 165.089844 157.585938 164.234375 157.667969 163.257812 C 157.75 162.285156 158.605469 161.558594 159.578125 161.644531 L 166.5625 162.234375 C 167.535156 162.316406 168.257812 163.171875 168.175781 164.144531 C 168.097656 165.066406 167.324219 165.765625 166.414062 165.765625 " fill-opacity="1" fill-rule="nonzero"/><path fill="#ffde1a" d="M 156.105469 175.515625 C 156.058594 175.515625 156.007812 175.515625 155.957031 175.511719 L 143.558594 174.46875 C 142.585938 174.386719 141.863281 173.53125 141.945312 172.554688 C 142.027344 171.582031 142.886719 170.859375 143.855469 170.941406 L 156.253906 171.984375 C 157.226562 172.066406 157.949219 172.921875 157.867188 173.894531 C 157.789062 174.820312 157.015625 175.515625 156.105469 175.515625 " fill-opacity="1" fill-rule="nonzero"/><path fill="#0083db" d="M 95.230469 152.03125 C 95.0625 151.710938 95.027344 151.398438 95.125 151.09375 C 95.222656 150.789062 95.445312 150.546875 95.789062 150.367188 C 96.136719 150.1875 96.464844 150.144531 96.769531 150.242188 C 97.078125 150.339844 97.3125 150.542969 97.476562 150.851562 C 97.632812 151.148438 97.664062 151.453125 97.574219 151.753906 C 97.484375 152.058594 97.257812 152.304688 96.898438 152.492188 C 96.539062 152.679688 96.210938 152.726562 95.914062 152.625 C 95.613281 152.527344 95.386719 152.328125 95.230469 152.03125 Z M 94.042969 149.417969 C 93.660156 148.695312 93.449219 148.070312 93.402344 147.542969 C 93.355469 147.019531 93.464844 146.359375 93.726562 145.566406 C 93.988281 144.773438 94.128906 144.230469 94.15625 143.9375 C 94.203125 143.492188 94.121094 143.078125 93.921875 142.691406 C 93.652344 142.179688 93.320312 141.855469 92.929688 141.71875 C 92.535156 141.582031 92.09375 141.644531 91.601562 141.902344 C 91.132812 142.144531 90.824219 142.476562 90.679688 142.886719 C 90.53125 143.300781 90.574219 143.734375 90.8125 144.183594 L 88.828125 145.222656 C 88.332031 144.253906 88.261719 143.316406 88.613281 142.417969 C 88.960938 141.519531 89.667969 140.789062 90.730469 140.234375 C 91.824219 139.660156 92.820312 139.492188 93.726562 139.726562 C 94.628906 139.960938 95.34375 140.578125 95.863281 141.574219 C 96.328125 142.464844 96.375 143.554688 95.996094 144.851562 L 95.511719 146.367188 C 95.367188 146.964844 95.496094 147.65625 95.894531 148.449219 L 94.042969 149.417969 " fill-opacity="1" fill-rule="nonzero"/><path fill="#0083db" d="M 200.007812 152.777344 C 200.167969 152.453125 200.402344 152.242188 200.707031 152.144531 C 201.007812 152.046875 201.332031 152.085938 201.679688 152.257812 C 202.03125 152.433594 202.257812 152.675781 202.355469 152.984375 C 202.457031 153.289062 202.429688 153.601562 202.273438 153.914062 C 202.121094 154.214844 201.898438 154.414062 201.597656 154.519531 C 201.296875 154.621094 200.96875 154.582031 200.605469 154.402344 C 200.242188 154.21875 200.015625 153.976562 199.921875 153.675781 C 199.828125 153.378906 199.855469 153.078125 200.007812 152.777344 Z M 201.429688 150.285156 C 201.796875 149.554688 202.179688 149.015625 202.578125 148.671875 C 202.976562 148.328125 203.574219 148.03125 204.371094 147.78125 C 205.167969 147.527344 205.691406 147.328125 205.945312 147.179688 C 206.332031 146.957031 206.621094 146.648438 206.816406 146.257812 C 207.078125 145.742188 207.148438 145.285156 207.027344 144.886719 C 206.90625 144.484375 206.601562 144.160156 206.105469 143.914062 C 205.632812 143.675781 205.1875 143.617188 204.765625 143.738281 C 204.34375 143.859375 204.019531 144.148438 203.792969 144.601562 L 201.789062 143.597656 C 202.289062 142.632812 203.003906 142.027344 203.941406 141.785156 C 204.875 141.546875 205.878906 141.695312 206.949219 142.230469 C 208.054688 142.785156 208.773438 143.496094 209.109375 144.371094 C 209.445312 145.242188 209.363281 146.179688 208.859375 147.1875 C 208.410156 148.082031 207.550781 148.757812 206.28125 149.207031 L 204.765625 149.699219 C 204.195312 149.929688 203.707031 150.4375 203.300781 151.222656 L 201.429688 150.285156 " fill-opacity="1" fill-rule="nonzero"/><g clip-path="url(#550e32daff)"><path fill="#0083db" d="M 101.898438 137.066406 C 101.765625 136.671875 101.785156 136.316406 101.953125 135.992188 C 102.117188 135.667969 102.410156 135.433594 102.828125 135.296875 C 103.253906 135.15625 103.632812 135.167969 103.960938 135.335938 C 104.289062 135.5 104.519531 135.773438 104.640625 136.152344 C 104.761719 136.519531 104.746094 136.863281 104.585938 137.1875 C 104.429688 137.511719 104.128906 137.75 103.691406 137.894531 C 103.25 138.039062 102.871094 138.027344 102.554688 137.863281 C 102.238281 137.695312 102.015625 137.429688 101.898438 137.066406 Z M 101.039062 133.90625 C 100.746094 133.019531 100.621094 132.277344 100.664062 131.675781 C 100.710938 131.074219 100.953125 130.351562 101.394531 129.507812 C 101.832031 128.664062 102.097656 128.078125 102.179688 127.753906 C 102.3125 127.257812 102.300781 126.777344 102.144531 126.304688 C 101.9375 125.679688 101.625 125.253906 101.203125 125.027344 C 100.785156 124.800781 100.277344 124.785156 99.679688 124.984375 C 99.105469 125.175781 98.699219 125.488281 98.457031 125.925781 C 98.210938 126.363281 98.183594 126.859375 98.367188 127.410156 L 95.9375 128.214844 C 95.5625 127.03125 95.652344 125.964844 96.214844 125.015625 C 96.773438 124.066406 97.703125 123.378906 99.003906 122.945312 C 100.339844 122.503906 101.496094 122.496094 102.472656 122.925781 C 103.445312 123.359375 104.132812 124.183594 104.539062 125.40625 C 104.898438 126.492188 104.746094 127.730469 104.085938 129.117188 L 103.257812 130.738281 C 102.984375 131.382812 103 132.1875 103.304688 133.152344 L 101.039062 133.90625 " fill-opacity="1" fill-rule="nonzero"/></g><g clip-path="url(#06717f3cda)"><path fill="#094f94" d="M 220.550781 61.890625 C 220.191406 59.007812 219.382812 55.683594 217.027344 53.789062 C 214.894531 52.074219 212.105469 51.714844 209.476562 51.5 C 202.75 50.953125 195.863281 50.980469 189.171875 51.921875 C 183.535156 52.714844 177.566406 54.929688 174.539062 60.160156 C 172.929688 62.941406 172.488281 66.359375 171.898438 69.476562 C 171.261719 72.855469 170.738281 76.253906 170.328125 79.667969 C 169.964844 82.660156 169.4375 85.808594 169.933594 88.816406 C 170.230469 90.621094 171.109375 92.136719 172.382812 93.269531 C 173.140625 94.296875 174.089844 95.203125 175.230469 95.925781 C 175.742188 96.25 176.277344 96.539062 176.824219 96.804688 C 175.757812 98.804688 175.621094 101.410156 175.953125 103.550781 C 176.417969 106.546875 177.949219 109.246094 179.871094 111.519531 C 180.515625 112.277344 181.644531 111.617188 181.691406 110.757812 C 181.921875 106.445312 183.699219 102.371094 186.566406 99.242188 C 188.730469 99.492188 190.910156 99.625 193.082031 99.636719 C 198.371094 99.664062 204.066406 98.855469 208.4375 95.609375 C 213.175781 92.09375 215.230469 86.503906 217.113281 81.09375 C 219.242188 74.984375 221.367188 68.457031 220.550781 61.890625 " fill-opacity="1" fill-rule="nonzero"/></g><path fill="#ffffff" d="M 197.101562 62.851562 C 197.1875 62.722656 197.273438 62.589844 197.488281 62.636719 C 197.445312 62.765625 197.316406 62.851562 197.101562 62.851562 Z M 195.640625 62.375 C 195.59375 62.546875 195.421875 62.375 195.46875 62.15625 C 195.421875 62.328125 195.292969 62.417969 195.207031 62.503906 C 195.164062 62.546875 195.035156 62.589844 195.078125 62.765625 C 194.433594 62.722656 194.433594 63.199219 193.917969 63.246094 C 193.917969 63.417969 193.917969 63.503906 193.917969 63.636719 C 193.316406 63.636719 193.058594 63.984375 192.886719 64.417969 C 192.628906 64.289062 192.457031 64.507812 192.285156 64.679688 C 192.113281 64.898438 191.898438 65.117188 191.769531 65.378906 C 191.46875 65.507812 191.382812 65.59375 191.167969 65.8125 C 191.082031 65.898438 191.167969 65.945312 190.996094 65.945312 C 190.867188 65.945312 190.910156 66.160156 190.910156 66.292969 C 190.734375 66.292969 190.609375 66.292969 190.433594 66.292969 C 190.347656 66.421875 190.476562 66.597656 190.433594 66.726562 C 190.390625 66.726562 190.175781 66.683594 190.175781 66.726562 C 190.046875 66.859375 190.132812 67.074219 190.003906 67.207031 C 189.917969 67.335938 189.660156 67.425781 189.402344 67.640625 C 189.359375 67.902344 189.273438 68.164062 189.015625 68.25 C 188.972656 68.339844 189.058594 68.382812 189.144531 68.382812 C 189.058594 68.511719 188.84375 68.644531 188.585938 68.644531 C 188.628906 68.730469 188.757812 68.859375 188.714844 69.035156 C 188.714844 69.121094 188.242188 69.207031 188.585938 69.253906 C 188.585938 69.425781 188.15625 69.425781 188.113281 69.511719 C 188.070312 69.6875 188.414062 69.863281 187.984375 69.773438 C 187.769531 69.863281 188.070312 69.949219 187.984375 70.167969 C 187.941406 70.296875 187.597656 70.339844 187.726562 70.515625 C 187.683594 70.515625 187.640625 70.515625 187.597656 70.515625 C 187.382812 70.210938 187.382812 70.777344 187.726562 70.734375 C 187.683594 70.949219 187.210938 70.777344 187.125 70.992188 C 187.082031 71.167969 187.082031 71.515625 186.695312 71.472656 C 186.695312 71.648438 186.695312 71.820312 186.695312 71.996094 C 186.09375 72.082031 186.609375 72.472656 186.09375 72.472656 C 186.351562 72.777344 185.964844 73.128906 185.703125 73.257812 C 185.53125 73.433594 185.660156 73.648438 185.703125 73.605469 C 185.574219 73.867188 185.273438 73.824219 185.101562 74.042969 C 185.023438 74.164062 185.351562 74.210938 185.398438 74.179688 C 185.226562 74.425781 185.058594 74.21875 184.972656 74.652344 C 184.886719 74.867188 184.714844 74.867188 184.714844 75.085938 C 184.671875 75.304688 184.84375 75.347656 184.800781 75.566406 C 184.542969 75.347656 184.671875 75.609375 184.542969 75.695312 C 184.542969 75.695312 184.414062 75.652344 184.414062 75.695312 C 184.371094 75.738281 184.457031 75.957031 184.414062 76 C 184.113281 76.132812 183.855469 77.046875 183.640625 77.394531 C 183.554688 77.609375 183.46875 77.261719 183.640625 77.261719 C 183.683594 77.003906 183.640625 76.652344 183.640625 76.480469 C 183.640625 76.480469 183.898438 76.390625 183.8125 76.347656 C 183.554688 76.175781 183.898438 76.21875 183.941406 76.132812 C 184.027344 75.957031 183.898438 75.695312 183.941406 75.566406 C 183.984375 75.476562 184.113281 75.566406 184.113281 75.476562 C 184.113281 75.171875 184.542969 75.261719 184.199219 74.652344 C 184.757812 74.519531 184.542969 73.691406 185.101562 73.605469 C 185.144531 73.519531 185.015625 73.300781 185.101562 73.128906 C 185.144531 73.082031 185.316406 73.039062 185.402344 72.996094 C 185.574219 72.691406 185.574219 72.429688 185.832031 72.125 C 185.964844 71.953125 185.964844 71.863281 186.09375 71.734375 C 186.222656 71.601562 186.222656 71.210938 186.4375 70.992188 C 186.480469 70.863281 186.695312 70.777344 186.824219 70.515625 C 186.910156 70.425781 187.125 70.339844 187.125 70.167969 C 187.125 70.167969 187.125 70.078125 187.125 70.035156 C 187.210938 69.90625 187.46875 69.773438 187.597656 69.6875 C 187.597656 69.644531 187.511719 69.425781 187.597656 69.382812 C 187.597656 69.382812 187.941406 69.207031 187.855469 69.121094 L 187.726562 69.121094 C 187.898438 68.816406 188.242188 68.773438 188.113281 68.382812 C 188.628906 68.46875 188.328125 67.859375 188.886719 67.988281 C 188.800781 67.726562 189.101562 67.726562 189.015625 67.335938 C 189.359375 67.425781 189.273438 67.121094 189.617188 67.121094 C 189.574219 66.640625 190.003906 66.640625 190.003906 66.160156 C 190.132812 66.117188 190.261719 66.03125 190.433594 66.03125 C 190.5625 65.640625 191.125 65.289062 191.46875 64.898438 C 191.511719 64.8125 191.640625 64.941406 191.640625 64.769531 C 191.640625 64.636719 191.8125 64.722656 191.898438 64.679688 C 191.941406 64.636719 191.855469 64.464844 191.898438 64.417969 C 192.027344 64.289062 192.242188 64.375 192.285156 64.246094 C 192.371094 64.203125 192.371094 64.027344 192.457031 64.027344 C 192.757812 63.855469 193.144531 63.941406 193.058594 63.417969 C 193.1875 63.246094 193.488281 63.375 193.488281 63.417969 C 193.660156 63.332031 193.703125 62.984375 193.917969 62.851562 C 194.003906 62.765625 194.777344 62.765625 194.347656 62.636719 C 194.433594 62.375 194.605469 62.589844 194.777344 62.636719 C 195.035156 62.636719 194.820312 62.285156 194.777344 62.375 C 194.992188 62.023438 195.511719 62.285156 195.640625 61.808594 C 196.113281 61.980469 195.984375 61.851562 196.5 61.808594 C 196.84375 62.070312 195.640625 62.113281 195.640625 62.375 Z M 195.378906 63.898438 C 195.25 63.417969 196.027344 63.722656 195.984375 63.246094 C 196.585938 63.417969 195.726562 63.808594 195.378906 63.898438 Z M 193.316406 64.679688 C 193.359375 64.550781 193.488281 64.59375 193.488281 64.679688 C 193.488281 65.246094 192.757812 65.160156 192.628906 65.683594 C 192.15625 65.203125 193.445312 65.246094 193.316406 64.679688 Z M 192.027344 66.292969 C 191.683594 66.554688 191.253906 66.640625 190.996094 66.988281 C 190.910156 67.121094 191.125 67.425781 190.734375 67.335938 C 190.824219 67.25 190.691406 67.03125 190.734375 66.988281 C 190.824219 66.945312 190.996094 67.03125 190.996094 66.988281 C 191.082031 66.902344 191.082031 66.683594 191.167969 66.597656 C 191.210938 66.597656 191.425781 66.640625 191.46875 66.597656 C 191.597656 66.507812 191.46875 66.25 191.640625 66.160156 C 191.726562 66.25 191.855469 66.335938 191.898438 66.160156 C 191.984375 65.988281 192.070312 66.160156 192.027344 66.292969 Z M 192.199219 65.550781 C 192.5 65.59375 192.285156 66.117188 191.898438 65.945312 C 191.984375 65.8125 192.242188 65.8125 192.199219 65.550781 Z M 195.378906 64.246094 C 195.121094 64.289062 195.121094 64.113281 194.90625 64.113281 C 194.691406 64.160156 195.035156 64.289062 194.90625 64.550781 C 194.90625 64.550781 194.089844 64.679688 194.347656 65.160156 C 194.261719 65.203125 194.132812 64.984375 194.089844 65.027344 C 194.003906 65.074219 193.832031 65.246094 193.789062 65.289062 C 193.746094 65.289062 193.703125 65.640625 193.574219 65.683594 C 193.53125 65.726562 193.359375 65.640625 193.316406 65.683594 C 193.273438 65.769531 193.402344 65.898438 193.316406 65.945312 C 193.1875 66.074219 193.058594 66.160156 192.886719 66.292969 C 192.886719 66.335938 192.671875 66.421875 192.628906 66.421875 C 192.628906 66.554688 192.671875 66.683594 192.628906 66.726562 C 192.542969 66.769531 192.328125 66.683594 192.285156 66.726562 C 192.242188 66.726562 192.371094 66.945312 192.285156 66.988281 C 192.242188 66.988281 192.070312 66.945312 192.027344 66.988281 C 191.984375 67.03125 191.984375 67.121094 191.898438 67.207031 C 191.8125 67.292969 191.8125 67.25 191.769531 67.335938 C 191.683594 67.378906 191.511719 67.554688 191.46875 67.640625 C 191.339844 67.773438 191.425781 67.945312 191.296875 68.121094 C 191.167969 68.292969 190.867188 68.46875 190.609375 68.773438 C 190.609375 68.949219 190.609375 69.121094 190.609375 69.253906 C 190.304688 69.253906 190.175781 69.558594 190.003906 69.773438 C 189.875 69.992188 189.789062 70.078125 189.617188 70.296875 C 189.53125 70.382812 189.316406 70.472656 189.273438 70.515625 C 189.230469 70.6875 189.359375 70.90625 189.273438 70.992188 C 189.230469 71.039062 189.058594 70.949219 189.015625 70.992188 C 188.800781 71.082031 189.015625 71.648438 188.414062 71.601562 C 188.414062 71.734375 188.585938 71.648438 188.714844 71.734375 C 188.542969 71.90625 188.585938 72.300781 188.113281 72.257812 C 188.285156 72.5625 187.726562 72.867188 188.113281 72.996094 C 188.070312 73.171875 187.855469 72.996094 187.855469 72.910156 C 187.640625 72.953125 187.941406 73.082031 187.726562 73.128906 C 187.640625 73.648438 187.210938 73.953125 186.996094 74.257812 C 187.339844 74.390625 186.695312 74.605469 186.566406 74.652344 C 186.609375 74.78125 186.738281 74.78125 186.824219 74.78125 C 186.824219 75.085938 186.480469 74.957031 186.566406 75.347656 C 186.4375 75.347656 186.480469 75.171875 186.4375 75.085938 C 186.179688 75.085938 186.351562 75.476562 186.09375 75.476562 C 186.09375 75.609375 186.09375 75.78125 186.265625 75.828125 C 186.265625 76 185.964844 76.042969 185.964844 76.132812 C 185.875 76.304688 186.046875 76.523438 185.703125 76.480469 C 185.617188 76.742188 185.703125 77.261719 185.230469 77.261719 C 185.058594 77.046875 185.316406 76.742188 185.402344 76.480469 C 185.445312 76.304688 185.617188 76.085938 185.703125 75.828125 C 185.703125 75.738281 185.660156 75.609375 185.703125 75.566406 C 185.703125 75.476562 185.964844 75.390625 185.964844 75.347656 C 186.046875 75.085938 186.046875 74.78125 186.09375 74.519531 C 186.609375 74.695312 186.222656 74.171875 186.695312 74.257812 C 186.4375 74.128906 186.695312 74.042969 186.695312 73.738281 C 186.695312 73.5625 186.953125 73.5625 186.996094 73.519531 C 187.167969 73.214844 187.167969 72.953125 187.382812 72.605469 C 187.511719 72.519531 187.683594 72.386719 187.726562 72.34375 C 187.8125 72.257812 187.769531 71.953125 187.855469 71.734375 C 187.855469 71.648438 187.984375 71.734375 187.984375 71.601562 C 187.984375 71.386719 188.199219 71.558594 188.285156 71.472656 C 188.414062 71.210938 188.285156 71.039062 188.414062 70.863281 C 188.5 70.820312 188.671875 70.863281 188.714844 70.863281 C 188.757812 70.820312 188.671875 70.558594 188.714844 70.515625 C 188.757812 70.515625 189.015625 70.425781 189.015625 70.382812 C 189.101562 70.296875 188.929688 70.035156 189.144531 70.035156 C 189.359375 70.035156 189.273438 69.253906 189.875 69.382812 C 189.875 69.253906 189.746094 69.296875 189.617188 69.253906 C 189.660156 69.121094 189.746094 69.035156 190.003906 69.035156 C 190.003906 68.644531 190.347656 68.511719 190.609375 68.382812 C 190.648438 68.25 190.5625 68.25 190.433594 68.25 C 190.433594 67.988281 190.867188 67.988281 190.996094 67.859375 C 190.867188 67.425781 191.640625 67.292969 191.640625 66.988281 C 191.640625 66.8125 191.8125 66.945312 191.898438 66.859375 C 191.984375 66.726562 191.941406 66.597656 192.027344 66.421875 C 192.15625 66.292969 192.457031 66.160156 192.628906 66.03125 C 192.84375 65.898438 192.886719 65.59375 193.1875 65.683594 C 193.230469 65.59375 193.101562 65.335938 193.1875 65.289062 C 193.230469 65.246094 193.445312 65.289062 193.488281 65.289062 C 193.789062 64.984375 194.089844 64.679688 194.691406 64.417969 C 194.691406 64.246094 194.691406 64.113281 194.691406 64.027344 C 194.777344 64.027344 194.90625 64.027344 195.078125 64.027344 C 194.949219 63.898438 194.820312 63.808594 194.691406 63.765625 C 194.734375 63.59375 195.550781 63.765625 195.378906 64.246094 Z M 185.832031 74.171875 C 186.09375 74.214844 185.703125 74.605469 185.402344 74.519531 C 185.488281 74.433594 185.53125 74.347656 185.53125 74.171875 C 185.660156 74.171875 185.703125 74.214844 185.703125 74.257812 C 185.832031 74.304688 185.832031 74.214844 185.832031 74.171875 Z M 188.585938 70.167969 C 188.414062 70.035156 188.5 69.90625 188.714844 69.90625 C 188.84375 70.382812 187.855469 70.472656 188.113281 70.734375 C 188.113281 70.949219 187.855469 70.90625 187.726562 71.082031 C 187.597656 71.210938 187.683594 71.648438 187.253906 71.601562 C 187.46875 70.992188 188.070312 70.777344 188.113281 70.035156 C 188.242188 70.125 188.371094 70.210938 188.585938 70.167969 Z M 189.402344 68.773438 C 189.789062 69.035156 188.972656 69.253906 189.015625 69.6875 C 188.714844 69.425781 188.84375 69.730469 188.414062 69.6875 C 188.628906 69.382812 189.144531 69.339844 189.144531 68.902344 C 189.316406 68.949219 189.402344 68.859375 189.402344 68.773438 Z M 190.175781 67.988281 C 190.21875 67.902344 190.046875 67.859375 190.003906 67.859375 C 190.175781 67.683594 190.476562 67.773438 190.433594 67.335938 C 190.734375 67.292969 190.691406 67.945312 190.304688 67.773438 C 190.089844 68.164062 190.003906 68.6875 189.273438 68.644531 C 189.316406 68.382812 189.703125 68.382812 189.875 68.25 C 189.746094 67.988281 190.089844 68.078125 190.175781 67.988281 Z M 186.824219 71.996094 C 187.082031 72.039062 187.125 71.863281 187.125 71.734375 C 187.253906 71.734375 187.382812 71.734375 187.597656 71.734375 C 187.640625 71.90625 187.082031 71.953125 186.996094 72.125 C 186.910156 72.257812 187.082031 72.472656 186.824219 72.472656 C 186.738281 72.472656 186.652344 72.472656 186.566406 72.472656 C 186.609375 72.34375 186.738281 72.386719 186.824219 72.34375 C 186.652344 72.210938 186.78125 72.167969 186.824219 71.996094 Z M 185.964844 73.386719 C 185.964844 73.34375 186.222656 73.300781 186.265625 73.257812 C 186.4375 72.996094 186.4375 72.472656 186.824219 72.605469 C 186.78125 72.824219 186.652344 72.910156 186.566406 72.996094 C 186.566406 73.039062 186.222656 73.34375 186.265625 73.386719 C 186.480469 73.5625 186.222656 73.519531 186.09375 73.605469 C 185.964844 73.824219 186.136719 74.257812 185.703125 74.042969 C 185.703125 73.910156 185.875 73.953125 185.964844 73.910156 C 185.875 73.824219 185.921875 73.5625 185.964844 73.386719 Z M 184.800781 75.21875 C 184.929688 74.957031 185.316406 75 185.402344 74.652344 C 185.660156 74.738281 185.488281 74.957031 185.230469 74.957031 C 185.230469 75.128906 185.230469 75.304688 185.230469 75.476562 C 184.929688 75.476562 185.015625 75.21875 184.800781 75.21875 Z M 184.542969 76.132812 C 184.628906 76.085938 184.757812 75.695312 184.800781 75.695312 C 184.972656 75.652344 184.972656 76.132812 184.542969 76.132812 Z M 183.425781 78.046875 C 183.511719 78.480469 183.125 78.480469 183.210938 78.046875 C 183.425781 78.046875 183.339844 77.742188 183.511719 77.742188 C 183.554688 77.917969 183.511719 78.046875 183.425781 78.046875 Z M 200.84375 59.761719 C 200.585938 59.585938 200.414062 59.28125 200.28125 59.152344 C 200.15625 58.976562 199.980469 59.066406 199.808594 58.976562 C 199.765625 58.933594 199.765625 58.804688 199.679688 58.761719 C 199.59375 58.671875 199.335938 58.628906 199.25 58.628906 C 199.078125 58.542969 198.90625 58.542969 198.648438 58.5 C 198.519531 58.457031 198.5625 58.367188 198.519531 58.367188 C 198.046875 58.195312 197.273438 58.105469 197.101562 57.800781 C 197.058594 57.800781 196.84375 57.84375 196.800781 57.800781 C 196.671875 57.757812 196.628906 57.628906 196.5 57.585938 C 196.285156 57.496094 196.113281 57.585938 195.984375 57.453125 C 195.640625 57.324219 195.511719 57.410156 195.207031 57.324219 C 195.035156 57.324219 194.992188 57.234375 194.777344 57.191406 C 192.972656 57.0625 190.609375 57.585938 188.414062 58.367188 C 187.8125 58.585938 187.039062 58.890625 186.566406 59.152344 C 186.265625 59.28125 186.046875 59.542969 185.832031 59.542969 C 185.53125 59.542969 185.617188 59.71875 185.230469 59.761719 C 185.101562 59.761719 185.1875 59.847656 185.101562 59.890625 C 184.972656 59.933594 184.800781 59.933594 184.714844 60.023438 C 184.457031 60.195312 184.285156 60.542969 184.113281 60.542969 C 183.898438 60.542969 183.597656 60.761719 183.511719 60.804688 C 183.125 61.066406 182.609375 61.675781 182.351562 61.9375 C 182.351562 61.980469 182.136719 61.894531 182.09375 61.9375 C 182.007812 61.980469 182.136719 62.113281 182.09375 62.15625 C 182.007812 62.199219 181.835938 62.113281 181.792969 62.15625 C 181.75 62.285156 181.792969 62.417969 181.792969 62.503906 C 181.75 62.503906 181.578125 62.589844 181.535156 62.636719 C 181.1875 62.851562 180.800781 63.246094 180.800781 63.417969 C 180.757812 63.546875 180.542969 63.765625 180.5 63.898438 C 180.414062 63.984375 180.328125 64.027344 180.242188 64.113281 C 180.113281 64.246094 180.113281 64.417969 180.027344 64.550781 C 179.984375 64.636719 179.8125 64.679688 179.726562 64.769531 C 179.726562 64.898438 179.683594 65.074219 179.640625 65.160156 C 179.210938 65.988281 179.210938 66.683594 179.511719 67.46875 C 179.726562 67.46875 179.855469 67.859375 179.898438 67.859375 C 179.9375 67.859375 180.070312 67.792969 180.050781 67.777344 C 180.378906 67.855469 180.550781 67.816406 180.800781 67.859375 C 180.929688 67.902344 180.929688 68.035156 181.015625 68.121094 C 181.363281 68.292969 181.492188 67.945312 181.621094 68.121094 C 181.664062 68.164062 181.621094 68.339844 181.621094 68.382812 C 181.75 68.425781 182.136719 68.46875 182.222656 68.46875 L 182.222656 68.382812 C 182.308594 68.292969 182.394531 68.46875 182.351562 68.46875 C 182.480469 68.46875 182.480469 68.382812 182.523438 68.382812 C 182.695312 68.339844 182.609375 68.511719 182.652344 68.644531 C 182.738281 68.730469 182.867188 68.46875 182.824219 68.46875 C 182.996094 68.46875 183.082031 68.511719 183.210938 68.644531 C 183.382812 67.945312 183.640625 67.03125 183.941406 66.597656 C 184.113281 66.335938 184.886719 65.027344 185.101562 65.027344 C 185.273438 65.027344 185.1875 64.984375 185.230469 64.898438 C 185.75 64.507812 186.136719 63.984375 186.566406 63.636719 C 186.953125 63.332031 187.339844 62.941406 187.726562 62.765625 C 187.855469 62.679688 187.855469 62.546875 187.984375 62.503906 C 188.113281 62.417969 188.285156 62.460938 188.414062 62.375 C 188.671875 62.15625 188.800781 61.9375 189.015625 61.808594 C 189.101562 61.71875 189.230469 61.765625 189.402344 61.675781 C 189.53125 61.632812 189.660156 61.503906 189.746094 61.460938 C 189.746094 61.460938 189.832031 61.460938 189.875 61.460938 C 190.046875 61.460938 189.917969 61.371094 190.003906 61.328125 C 190.175781 61.285156 190.304688 61.285156 190.433594 61.15625 C 190.476562 61.109375 190.648438 60.9375 190.734375 60.894531 C 190.910156 60.847656 191.039062 60.847656 191.167969 60.804688 C 191.253906 60.761719 191.167969 60.71875 191.296875 60.675781 C 191.726562 60.589844 191.640625 60.542969 191.898438 60.414062 C 192.199219 60.285156 192.457031 60.242188 192.800781 60.195312 C 193.273438 59.980469 193.789062 59.761719 194.347656 59.628906 C 194.777344 59.542969 196.027344 59.195312 196.070312 59.414062 C 195.984375 59.847656 195.726562 60.242188 195.46875 60.414062 C 195.292969 60.675781 195.207031 60.847656 195.078125 61.023438 C 195.035156 61.109375 194.863281 61.242188 194.777344 61.328125 C 194.605469 61.503906 194.390625 61.589844 194.175781 61.808594 C 194.046875 62.023438 193.960938 62.285156 193.789062 62.503906 C 193.574219 62.679688 193.359375 62.808594 193.1875 62.984375 C 192.84375 63.375 192.414062 63.679688 192.027344 64.027344 C 191.855469 64.160156 191.640625 64.375 191.46875 64.550781 C 191.339844 64.636719 191.125 64.59375 190.996094 64.679688 C 190.953125 64.769531 190.996094 64.941406 190.910156 65.027344 C 190.691406 65.203125 190.347656 65.289062 190.175781 65.378906 C 189.917969 65.59375 189.746094 65.8125 189.617188 65.945312 C 189.53125 65.988281 189.53125 66.203125 189.402344 66.292969 C 189.359375 66.335938 189.1875 66.25 189.144531 66.292969 C 189.101562 66.335938 189.1875 66.554688 189.144531 66.597656 C 188.929688 66.769531 188.757812 66.902344 188.585938 67.121094 C 188.15625 67.46875 187.769531 67.816406 187.382812 68.121094 C 187.210938 68.292969 187.167969 68.597656 186.996094 68.773438 C 186.78125 68.992188 186.609375 69.078125 186.4375 69.253906 C 186.09375 69.644531 185.921875 69.949219 185.703125 70.167969 C 185.488281 70.382812 185.402344 70.601562 185.230469 70.863281 C 185.144531 70.992188 185.015625 70.992188 184.972656 71.082031 C 184.84375 71.210938 184.886719 71.296875 184.800781 71.472656 C 184.757812 71.515625 184.585938 71.648438 184.542969 71.734375 C 184.457031 71.863281 184.5 71.996094 184.414062 72.125 C 184.285156 72.210938 184.113281 72.300781 184.113281 72.34375 C 183.941406 72.605469 183.941406 72.910156 183.8125 73.128906 C 183.769531 73.214844 183.683594 73.128906 183.640625 73.257812 C 183.597656 73.433594 183.597656 73.519531 183.511719 73.605469 C 183.382812 73.910156 183.511719 74.042969 183.425781 74.257812 C 183.382812 74.347656 183.082031 74.476562 183.082031 74.519531 C 182.953125 74.867188 183.039062 75.128906 182.910156 75.476562 C 182.910156 75.476562 182.695312 75.609375 182.652344 75.695312 C 182.523438 76.042969 182.609375 76.132812 182.523438 76.347656 C 182.480469 76.4375 182.394531 76.4375 182.351562 76.480469 C 182.222656 76.957031 182.179688 77.351562 182.09375 77.742188 C 182.050781 77.785156 181.964844 77.785156 181.921875 77.871094 C 181.75 78.480469 181.75 78.917969 181.792969 79.570312 C 182.136719 79.65625 182.179688 79.960938 182.523438 80.09375 C 182.523438 80.179688 182.523438 80.222656 182.652344 80.222656 C 182.953125 80.222656 182.953125 79.789062 183.210938 80.09375 C 183.253906 80.265625 183.210938 80.355469 183.425781 80.222656 C 183.46875 80.136719 184.113281 80.789062 184.113281 80.484375 C 184.285156 80.527344 184.199219 80.660156 184.542969 80.703125 C 184.757812 80.746094 185.058594 80.703125 185.101562 80.570312 C 185.316406 80.617188 185.230469 80.964844 185.703125 80.832031 C 185.875 80.789062 185.832031 80.617188 185.832031 80.484375 C 185.832031 80.355469 185.964844 80.398438 185.964844 80.355469 C 186.046875 79.960938 185.964844 79.527344 186.09375 79.308594 C 186.136719 79.265625 186.351562 79.265625 186.4375 79.222656 C 186.523438 78.960938 186.480469 78.699219 186.566406 78.527344 C 186.609375 78.394531 186.695312 78.394531 186.824219 78.265625 C 186.867188 78.265625 186.824219 78.046875 186.824219 78.046875 C 187.039062 77.65625 187.210938 77.4375 187.253906 77.132812 C 187.253906 76.828125 187.554688 76.742188 187.597656 76.609375 C 187.597656 76.304688 187.855469 76.4375 187.855469 76.132812 C 187.855469 75.957031 187.941406 76.042969 187.984375 76 C 188.199219 75.566406 188.371094 75.261719 188.585938 74.957031 C 188.628906 74.867188 188.84375 74.867188 188.886719 74.78125 C 188.929688 74.695312 188.800781 74.519531 188.886719 74.390625 C 188.972656 74.257812 189.1875 74.171875 189.273438 74.042969 C 189.402344 73.867188 189.445312 73.648438 189.617188 73.519531 C 189.617188 73.519531 189.746094 73.5625 189.746094 73.519531 C 189.746094 73.519531 189.746094 73.300781 189.746094 73.257812 C 189.832031 72.996094 190.046875 72.996094 190.175781 72.910156 C 190.261719 72.824219 190.21875 72.5625 190.304688 72.472656 C 190.390625 72.34375 190.648438 72.257812 190.734375 72.125 C 190.78125 72.082031 190.734375 71.996094 190.734375 71.996094 C 190.78125 71.734375 191.296875 71.386719 191.46875 71.210938 C 191.597656 71.082031 191.640625 71.039062 191.769531 70.992188 C 191.8125 70.949219 191.726562 70.777344 191.769531 70.734375 C 191.855469 70.515625 192.070312 70.425781 192.199219 70.296875 C 192.285156 70.167969 192.5 70.035156 192.628906 69.90625 C 192.800781 69.773438 192.800781 69.558594 192.886719 69.382812 C 193.015625 69.253906 193.316406 69.164062 193.488281 69.035156 C 193.789062 68.773438 194.089844 68.46875 194.347656 68.25 C 194.5625 68.035156 194.476562 67.773438 194.777344 67.773438 C 195.164062 67.726562 195.25 67.207031 195.378906 67.121094 C 195.378906 67.074219 195.59375 67.164062 195.640625 67.121094 C 195.769531 66.988281 195.855469 66.945312 195.984375 66.859375 C 196.027344 66.8125 195.898438 66.597656 195.984375 66.597656 C 196.242188 66.292969 196.628906 66.074219 196.972656 65.8125 C 197.359375 65.335938 198.089844 64.855469 198.390625 64.550781 C 198.433594 64.507812 198.347656 64.289062 198.390625 64.246094 C 198.433594 64.203125 198.605469 64.289062 198.648438 64.246094 C 198.734375 64.160156 198.734375 63.984375 198.777344 63.898438 C 198.949219 63.765625 199.164062 63.722656 199.25 63.636719 C 199.335938 63.503906 199.292969 63.375 199.378906 63.246094 C 199.464844 63.15625 199.59375 63.070312 199.679688 62.984375 C 200.414062 62.113281 201.058594 61.109375 200.84375 59.761719 " fill-opacity="1" fill-rule="nonzero"/><path fill="#ffffff" d="M 185.101562 84.445312 C 184.628906 84.492188 184.371094 84.1875 184.113281 84.1875 C 183.941406 84.1875 184.027344 84.054688 183.941406 84.054688 C 183.554688 83.925781 183.082031 83.882812 182.824219 83.707031 C 182.351562 83.75 182.523438 83.75 182.222656 83.574219 C 182.179688 83.664062 182.222656 83.792969 182.09375 83.792969 C 182.007812 83.664062 181.878906 83.574219 181.921875 83.316406 C 181.492188 83.316406 181.363281 83.054688 180.800781 83.097656 C 180.542969 83.574219 180.242188 84.359375 180.027344 85.054688 C 179.984375 85.40625 180.070312 85.664062 180.027344 85.96875 C 180.027344 86.144531 179.898438 86.230469 179.898438 86.492188 C 179.855469 86.929688 179.941406 87.144531 180.027344 87.363281 C 180.070312 87.539062 180.15625 87.539062 180.242188 87.539062 C 180.285156 87.625 180.113281 87.84375 180.242188 87.929688 C 180.242188 87.929688 180.585938 88.015625 180.628906 88.058594 C 180.757812 88.148438 180.800781 88.320312 180.929688 88.410156 C 181.277344 88.410156 181.363281 88.191406 181.792969 88.277344 C 181.664062 88.714844 182.179688 88.582031 182.222656 88.800781 C 182.523438 88.84375 182.523438 88.667969 182.652344 88.582031 C 182.652344 88.972656 183.125 88.929688 183.425781 89.191406 C 183.640625 88.800781 184.113281 89.28125 184.542969 89.191406 C 184.757812 88.84375 184.800781 88.277344 184.972656 87.800781 C 185.1875 86.886719 185.488281 85.96875 185.402344 84.96875 C 185.1875 84.882812 185.101562 84.664062 185.101562 84.445312 " fill-opacity="1" fill-rule="nonzero"/><path fill="#ffffff" d="M 205.402344 84.445312 C 205.226562 84.402344 204.96875 84.621094 204.925781 84.578125 C 204.796875 84.535156 204.839844 84.1875 204.625 84.140625 C 204.324219 84.96875 204.195312 83.707031 203.679688 83.882812 C 203.679688 84.097656 203.59375 84.273438 203.335938 84.359375 C 203.464844 83.835938 203.035156 83.835938 203.335938 83.621094 C 202.605469 83.664062 202.476562 83.359375 202.089844 83.707031 C 202.046875 83.664062 202.089844 83.488281 201.917969 83.488281 C 201.832031 83.792969 201.832031 84.273438 201.617188 84.445312 C 201.53125 83.835938 201.875 83.664062 201.789062 83.054688 C 201.230469 82.921875 200.972656 82.617188 200.410156 82.921875 C 200.367188 82.835938 200.367188 82.75 200.195312 82.75 C 199.851562 83.75 199.679688 85.621094 199.765625 86.929688 C 199.765625 87.058594 199.851562 87.058594 199.894531 87.101562 C 199.894531 87.191406 199.765625 87.277344 199.765625 87.234375 C 199.765625 87.363281 199.851562 87.320312 199.851562 87.363281 C 199.9375 87.539062 199.851562 87.710938 199.851562 87.800781 C 199.980469 88.015625 200.5 87.972656 200.367188 88.320312 C 200.5 88.367188 200.628906 88.320312 200.628906 88.539062 C 200.929688 88.539062 201.101562 88.496094 201.273438 88.320312 C 201.144531 88.800781 201.53125 88.496094 201.617188 88.539062 C 201.703125 88.582031 201.789062 88.757812 201.917969 88.800781 C 202.089844 88.84375 202.175781 88.84375 202.390625 88.929688 C 202.691406 89.0625 202.992188 89.28125 203.292969 89.367188 C 203.207031 89.324219 203.507812 89.191406 203.507812 89.191406 C 204.109375 89.0625 204.367188 89.714844 204.796875 89.367188 C 204.796875 87.539062 205.703125 86.582031 205.746094 84.75 C 205.53125 84.792969 205.53125 84.492188 205.402344 84.445312 " fill-opacity="1" fill-rule="nonzero"/><path fill="#ffffff" d="M 204.066406 72.867188 C 204.496094 72.953125 204.324219 72.519531 204.582031 72.386719 C 204.367188 72.386719 204.195312 72.386719 204.066406 72.386719 C 204.066406 72.519531 204.066406 72.691406 204.066406 72.867188 " fill-opacity="1" fill-rule="nonzero"/><path fill="#ffffff" d="M 208.710938 63.027344 C 208.410156 62.894531 208.667969 62.765625 208.710938 62.636719 C 209.011719 62.722656 208.710938 62.851562 208.710938 63.027344 Z M 207.980469 65.289062 C 207.894531 65.289062 207.765625 64.898438 207.851562 64.855469 C 208.023438 64.679688 207.894531 64.636719 208.023438 64.113281 C 208.023438 64.070312 208.152344 64.113281 208.152344 64.027344 C 208.195312 63.984375 208.152344 63.898438 208.195312 63.855469 C 208.238281 63.722656 208.367188 63.460938 208.582031 63.15625 C 208.796875 63.199219 208.367188 63.417969 208.667969 63.460938 C 208.195312 64.113281 208.324219 64.636719 207.980469 65.289062 Z M 207.636719 66.683594 C 207.207031 66.8125 207.378906 66.335938 207.464844 66.074219 C 207.59375 65.769531 207.679688 65.550781 207.851562 65.378906 C 207.980469 65.378906 207.9375 65.550781 207.851562 65.550781 C 207.808594 65.683594 207.894531 65.683594 207.980469 65.683594 C 207.636719 65.8125 207.980469 66.597656 207.636719 66.683594 Z M 207.25 64.113281 C 207.464844 63.636719 207.550781 64.417969 207.335938 64.464844 C 207.292969 64.464844 207.164062 64.203125 207.25 64.113281 Z M 206.949219 63.332031 C 206.90625 63.246094 207.207031 62.941406 207.292969 62.765625 C 207.722656 62.679688 206.992188 63.417969 206.949219 63.332031 Z M 206.90625 64.464844 C 206.777344 64.769531 206.433594 64.550781 206.605469 64.113281 C 206.648438 64.027344 206.777344 63.765625 206.90625 63.460938 C 207.164062 63.460938 206.90625 63.59375 206.90625 63.59375 C 206.90625 63.679688 207.078125 63.941406 207.078125 63.855469 C 207.035156 64.027344 206.519531 64.246094 206.90625 64.464844 Z M 206.347656 65.945312 C 206.046875 65.769531 206.519531 65.640625 206.21875 65.289062 C 206.648438 65.289062 206.605469 65.8125 206.347656 65.945312 Z M 206.261719 67.816406 C 206.519531 67.945312 206.347656 67.988281 206.261719 68.207031 C 206.175781 68.207031 206.089844 68.035156 206.132812 67.902344 C 206.132812 67.859375 206.21875 67.597656 206.304688 67.46875 C 206.519531 67.207031 206.691406 67.46875 206.261719 67.816406 Z M 205.960938 68.902344 C 205.875 68.46875 206.261719 68.644531 206.261719 68.339844 C 206.820312 68.382812 205.574219 68.859375 206.433594 68.773438 C 206.390625 68.949219 206.089844 68.902344 205.960938 68.902344 Z M 205.917969 69.644531 C 205.917969 69.773438 206.089844 69.90625 205.746094 70.167969 C 205.269531 70.035156 205.917969 69.90625 205.917969 69.863281 C 205.960938 69.773438 205.703125 69.644531 205.960938 69.46875 C 205.960938 69.296875 206.089844 69.382812 206.089844 69.46875 C 206.089844 69.558594 205.917969 69.644531 205.917969 69.644531 Z M 205.359375 71.558594 C 205.011719 71.472656 205.53125 71.34375 205.574219 71.125 C 205.574219 71.039062 205.269531 70.863281 205.402344 70.558594 C 205.746094 70.601562 205.488281 71.210938 205.875 71.125 C 205.832031 71.386719 205.316406 71.253906 205.359375 71.558594 Z M 205.53125 71.996094 C 205.402344 71.996094 205.316406 71.996094 205.1875 71.996094 C 205.1875 71.90625 205.1875 71.820312 205.1875 71.648438 C 205.316406 71.648438 205.488281 71.648438 205.53125 71.648438 C 205.53125 71.820312 205.53125 71.90625 205.53125 71.996094 Z M 206.046875 66.8125 C 205.875 66.683594 205.917969 66.074219 206.347656 66.074219 C 206.175781 66.421875 206.347656 66.597656 206.046875 66.945312 C 205.832031 66.945312 205.960938 66.8125 206.046875 66.8125 Z M 205.832031 68.078125 C 205.875 68.292969 205.402344 68.511719 205.789062 68.773438 C 205.617188 69.207031 205.488281 68.597656 205.316406 68.644531 C 205.574219 68.46875 205.402344 68.035156 205.488281 67.816406 C 205.488281 68.035156 206.089844 67.074219 205.703125 67.207031 C 206.089844 66.597656 206.132812 67.816406 205.832031 67.816406 C 205.617188 67.816406 205.832031 67.945312 205.832031 68.078125 Z M 206.433594 63.15625 C 206.648438 62.984375 206.648438 62.679688 206.777344 62.460938 C 206.992188 62.023438 206.949219 63.375 206.433594 63.15625 Z M 204.839844 72.125 C 204.753906 72.257812 204.753906 72.5625 204.710938 73.082031 C 204.195312 73.171875 204.066406 72.953125 203.722656 72.867188 C 203.765625 73.300781 204.152344 72.996094 203.851562 73.519531 C 204.152344 73.5625 204.195312 73.433594 204.195312 73.257812 C 204.496094 73.300781 204.582031 73.476562 204.496094 73.824219 C 204.109375 73.867188 204.152344 73.5625 203.722656 73.648438 C 203.507812 73.691406 203.679688 73.910156 203.851562 73.953125 C 203.808594 74.085938 203.679688 74.128906 203.679688 74.214844 C 203.894531 74.171875 204.023438 74.085938 204.023438 73.824219 C 204.152344 73.953125 204.625 73.867188 204.496094 74.214844 C 204.023438 74.128906 203.894531 74.347656 203.550781 74.347656 C 203.59375 74.476562 203.894531 74.867188 203.335938 74.78125 C 203.335938 74.910156 203.59375 74.910156 203.679688 74.910156 C 203.765625 75.171875 203.164062 75.476562 203.636719 75.609375 C 203.59375 75.78125 203.335938 75.738281 203.121094 75.738281 C 203.035156 75.957031 203.507812 75.828125 203.507812 75.914062 C 203.550781 76.4375 202.992188 77.046875 203.25 77.566406 C 202.949219 77.699219 203.121094 78.046875 202.777344 77.699219 C 202.863281 77.871094 202.949219 78.046875 203.207031 78.046875 C 203.164062 78.351562 203.035156 78.699219 202.777344 78.4375 C 202.734375 78.65625 202.863281 78.742188 203.035156 78.832031 C 203.078125 78.960938 202.734375 79.089844 202.734375 79.136719 C 202.734375 79.222656 202.992188 79.441406 202.992188 79.394531 C 202.90625 79.65625 202.605469 79.222656 202.5625 79.703125 C 202.433594 79.875 202.21875 78.308594 202.433594 78.132812 C 202.605469 78.046875 202.476562 78.046875 202.476562 77.699219 C 202.433594 77.566406 202.433594 77.351562 202.476562 77.175781 L 202.648438 77.175781 C 202.734375 76.957031 202.5625 76.609375 202.820312 76.609375 C 202.648438 76.261719 202.476562 76.4375 202.691406 76.085938 C 202.691406 76.042969 202.648438 75.78125 202.691406 75.738281 C 202.90625 75.609375 202.734375 75.695312 202.691406 75.609375 C 202.648438 75.476562 202.863281 75.476562 202.863281 75.476562 C 202.863281 75.476562 202.648438 75.261719 202.691406 75.21875 C 202.90625 75.042969 202.734375 74.957031 202.90625 74.476562 C 202.90625 74.476562 203.164062 74.519531 203.164062 74.476562 C 203.25 74.347656 202.949219 74.433594 202.90625 74.347656 C 202.90625 74.304688 203.035156 74.171875 203.035156 74.128906 C 203.078125 73.953125 202.734375 73.519531 203.035156 73.519531 C 203.335938 73.519531 203.035156 73.386719 203.078125 73.386719 C 203.035156 73.257812 203.207031 73.257812 203.207031 73.257812 C 203.207031 73.082031 203.078125 73.171875 203.078125 73.082031 C 203.035156 72.953125 203.207031 73.039062 203.25 72.953125 C 203.292969 72.867188 203.078125 72.867188 203.078125 72.867188 C 203.078125 72.777344 203.207031 72.648438 203.25 72.519531 C 203.335938 72.257812 203.207031 72.167969 203.464844 71.996094 C 203.59375 71.90625 203.507812 71.601562 203.765625 71.648438 C 203.335938 71.472656 203.59375 70.601562 203.980469 70.296875 C 203.808594 70.167969 203.808594 69.820312 203.851562 69.46875 C 204.367188 69.511719 203.980469 69.382812 204.023438 69.078125 C 204.023438 69.078125 204.195312 69.035156 204.195312 68.902344 C 204.195312 68.859375 204.195312 68.816406 204.195312 68.773438 C 204.195312 68.730469 204.324219 68.597656 204.324219 68.644531 C 204.367188 68.25 204.109375 68.292969 204.367188 67.902344 C 204.367188 67.859375 204.839844 67.25 204.367188 67.074219 C 204.324219 66.945312 204.710938 67.03125 204.753906 66.945312 C 204.925781 66.640625 204.839844 65.945312 204.925781 65.550781 L 205.097656 65.550781 C 205.144531 65.464844 205.054688 65.289062 205.097656 65.289062 C 205.097656 65.246094 205.316406 65.027344 205.269531 64.984375 C 205.097656 64.8125 205.226562 64.898438 205.488281 64.855469 C 205.269531 64.679688 205.269531 64.375 205.316406 64.027344 C 205.402344 63.941406 205.789062 63.808594 205.832031 63.722656 C 205.875 63.546875 205.53125 63.417969 205.832031 63.15625 C 205.789062 63.199219 206.046875 62.199219 205.875 62.328125 C 205.960938 62.113281 206.089844 62.023438 206.304688 62.070312 C 206.519531 61.894531 206.175781 61.808594 206.175781 61.765625 C 206.175781 61.675781 206.605469 61.460938 206.5625 61.371094 L 206.347656 61.371094 C 206.390625 61.242188 206.519531 60.847656 206.863281 60.894531 C 206.863281 60.804688 206.691406 60.847656 206.5625 60.804688 C 206.5625 60.457031 206.820312 60.371094 206.734375 59.933594 C 206.90625 59.933594 207.035156 59.933594 207.207031 59.933594 C 207.464844 60.195312 207.121094 60.285156 207.035156 60.5 C 206.949219 60.71875 207.078125 60.980469 206.992188 61.242188 C 206.992188 61.242188 206.863281 61.242188 206.820312 61.371094 C 206.820312 61.414062 206.863281 61.503906 206.820312 61.503906 C 206.777344 61.546875 206.691406 61.632812 206.691406 61.632812 C 206.519531 62.113281 206.519531 62.765625 206.261719 63.332031 C 206.261719 63.332031 206.132812 63.417969 206.089844 63.460938 C 206.089844 63.546875 206.132812 63.636719 206.089844 63.722656 C 206.089844 63.941406 206.304688 63.765625 206.261719 63.722656 C 206.734375 64.027344 206.003906 64.160156 206.390625 64.464844 C 206.390625 64.679688 206.003906 64.636719 206.089844 64.984375 C 205.917969 65.074219 206.003906 64.722656 205.960938 64.679688 C 205.746094 64.679688 205.617188 65.289062 205.574219 65.550781 C 205.746094 65.59375 205.746094 65.507812 205.746094 65.378906 C 206.046875 64.984375 205.917969 65.945312 205.402344 65.683594 C 205.488281 66.25 205.226562 66.683594 205.054688 67.074219 C 205.53125 67.292969 205.269531 66.769531 205.402344 66.554688 C 205.402344 66.507812 205.703125 66.25 205.746094 66.25 C 205.746094 66.117188 205.488281 65.988281 205.574219 65.855469 C 205.746094 65.898438 205.960938 65.988281 205.875 66.25 C 205.875 66.292969 205.488281 66.597656 205.53125 66.683594 C 205.703125 66.8125 205.574219 66.726562 205.53125 66.945312 C 205.53125 67.03125 205.574219 67.164062 205.53125 67.207031 L 205.359375 67.207031 C 205.269531 67.46875 205.53125 67.945312 204.839844 67.816406 C 204.882812 67.945312 205.144531 67.902344 205.359375 67.902344 C 205.226562 68.035156 205.144531 68.164062 205.144531 68.339844 C 205.011719 68.339844 205.054688 68.164062 205.011719 68.078125 C 204.453125 68.035156 205.144531 68.46875 205.144531 68.46875 C 205.144531 68.511719 205.011719 68.773438 204.96875 68.902344 C 204.925781 69.164062 205.144531 69.339844 204.96875 69.46875 C 204.324219 69.46875 204.882812 69.339844 204.839844 69.078125 C 204.625 69.121094 204.496094 69.207031 204.496094 69.46875 C 204.796875 69.773438 205.054688 69.511719 204.796875 70.035156 C 205.054688 70.078125 205.054688 69.90625 205.269531 69.863281 C 204.882812 69.773438 205.617188 69.339844 205.144531 69.164062 C 205.054688 69.121094 205.53125 68.992188 205.617188 69.078125 C 205.917969 69.296875 205.144531 69.558594 205.617188 69.644531 C 205.269531 69.90625 205.316406 70.472656 204.925781 70.734375 C 205.402344 70.992188 204.667969 71.601562 205.054688 71.648438 C 204.925781 72.125 204.839844 71.472656 204.582031 71.558594 C 205.011719 71.210938 204.582031 70.90625 204.925781 70.558594 C 204.96875 70.167969 204.453125 70.949219 204.453125 70.425781 C 204.453125 69.863281 204.710938 70.425781 205.097656 70.296875 C 205.144531 70.078125 204.753906 70.253906 204.625 70.167969 C 204.539062 70.078125 204.796875 69.730469 204.496094 69.773438 C 204.152344 69.773438 204.710938 70.078125 204.28125 70.296875 C 204.238281 70.6875 204.582031 70.558594 204.238281 70.90625 C 204.367188 70.90625 204.453125 70.820312 204.453125 70.734375 C 204.539062 70.6875 204.667969 70.992188 204.625 71.039062 C 204.582031 71.039062 204.238281 70.992188 204.238281 71.039062 C 204.238281 71.125 204.496094 71.296875 204.367188 71.648438 C 204.367188 71.953125 204.195312 71.996094 204.195312 72.300781 C 204.539062 72.257812 204.625 72.039062 204.582031 71.648438 C 204.796875 71.996094 205.144531 72.125 205.53125 72.300781 C 205.316406 72.691406 205.097656 72.125 204.839844 72.125 Z M 205.011719 72.691406 C 205.011719 72.648438 205.359375 72.386719 205.488281 72.519531 C 205.617188 72.648438 204.839844 72.953125 205.011719 72.691406 Z M 204.96875 73.824219 C 204.539062 73.648438 204.839844 73.5625 204.839844 73.257812 C 205.1875 73.300781 205.1875 73.605469 204.96875 73.824219 Z M 204.796875 75.21875 C 204.582031 75.21875 204.324219 75.21875 204.152344 75.21875 C 204.109375 75.738281 204.195312 76.390625 203.59375 76.480469 C 203.550781 76.21875 203.722656 76.132812 203.765625 76.085938 C 203.808594 76.042969 203.765625 75.78125 203.808594 75.738281 C 203.980469 75.609375 203.722656 75.566406 203.980469 75.476562 C 204.109375 75.304688 203.808594 75.261719 203.808594 75.21875 C 203.808594 75.128906 203.980469 75.042969 203.980469 74.910156 C 203.980469 74.695312 203.765625 74.214844 204.28125 74.347656 C 204.324219 74.695312 204.023438 74.652344 204.152344 75.085938 C 204.195312 75.085938 204.324219 75.085938 204.453125 75.085938 C 204.839844 75.042969 204.496094 74.605469 204.496094 74.652344 C 204.539062 74.476562 204.753906 74.476562 204.839844 74.347656 C 204.839844 74.257812 204.582031 74.085938 204.839844 73.953125 C 205.488281 74.257812 204.667969 74.519531 204.796875 75.21875 Z M 204.582031 76.085938 C 204.238281 76 204.238281 75.828125 204.453125 75.609375 C 204.582031 75.609375 204.667969 75.609375 204.796875 75.609375 C 204.667969 75.738281 204.582031 75.828125 204.582031 76.085938 Z M 204.195312 77.351562 C 204.367188 77.21875 204.324219 77.003906 204.367188 76.742188 C 204.367188 76.742188 204.195312 76.523438 204.367188 76.609375 C 204.28125 76.566406 204.582031 76.785156 204.582031 76.742188 C 204.582031 76.785156 204.753906 77.394531 204.195312 77.351562 Z M 203.722656 77.351562 C 203.164062 77.308594 204.066406 76.695312 203.59375 76.742188 C 204.023438 76.304688 203.894531 77.132812 203.722656 77.351562 Z M 203.421875 78.570312 C 203.335938 78.570312 203.59375 78.351562 203.59375 78.308594 C 203.59375 78.308594 203.292969 78.089844 203.59375 78.132812 C 203.464844 78.132812 203.722656 78.394531 203.722656 78.308594 C 203.765625 78.4375 203.507812 78.65625 203.421875 78.570312 Z M 207.765625 58.671875 C 208.195312 59.019531 207.078125 59.152344 207.335938 59.804688 C 206.390625 59.585938 207.421875 58.976562 207.765625 58.671875 Z M 210.519531 59.933594 C 210.476562 59.804688 210.734375 59.761719 210.734375 59.628906 C 210.820312 59.414062 210.863281 59.195312 210.949219 58.933594 C 210.734375 58.933594 210.777344 58.761719 210.777344 58.542969 C 210.089844 58.457031 209.785156 58.019531 208.882812 58.148438 C 208.839844 57.671875 208.238281 57.714844 207.765625 57.671875 C 207.421875 57.148438 207.078125 57.234375 206.519531 57.148438 C 206.175781 58.238281 205.917969 59.195312 205.617188 60.242188 C 205.53125 60.457031 205.488281 60.804688 205.402344 61.023438 C 205.269531 61.503906 204.925781 62.285156 204.882812 62.765625 C 204.839844 62.851562 204.753906 62.808594 204.753906 62.851562 C 204.539062 63.417969 204.496094 64.027344 204.324219 64.246094 C 204.195312 64.59375 204.195312 64.855469 204.023438 64.984375 C 203.9375 65.027344 204.152344 65.203125 204.152344 65.117188 C 204.066406 65.507812 203.9375 65.769531 203.808594 65.855469 C 203.765625 65.855469 203.808594 66.160156 203.808594 66.25 C 203.808594 66.335938 203.636719 66.335938 203.636719 66.378906 C 203.59375 66.769531 203.550781 67.121094 203.464844 67.46875 C 203.335938 67.945312 203.292969 67.902344 203.25 68.339844 C 203.207031 68.46875 203.078125 68.46875 203.078125 68.46875 C 202.949219 69.035156 202.949219 69.644531 202.90625 70.167969 C 202.863281 70.296875 202.734375 70.339844 202.734375 70.425781 C 202.648438 70.601562 202.734375 70.863281 202.691406 71.039062 C 202.648438 71.167969 202.5625 71.34375 202.519531 71.558594 C 202.390625 72.167969 202.261719 72.648438 202.132812 73.257812 C 201.832031 74.5625 201.746094 75.957031 201.53125 77.351562 C 201.488281 77.480469 201.402344 77.480469 201.359375 77.699219 C 201.230469 78.527344 201.359375 79.222656 201.230469 79.917969 C 201.746094 79.875 201.574219 80.355469 202.046875 80.265625 C 202.691406 80.355469 202.476562 79.65625 202.992188 79.703125 C 202.949219 79.875 202.777344 79.875 202.691406 80.136719 C 202.863281 80.136719 203.035156 80.355469 202.863281 80.398438 C 202.820312 80.265625 202.605469 80.007812 202.519531 80.265625 C 202.949219 80.355469 203.035156 80.921875 203.292969 80.660156 C 203.464844 80.527344 203.464844 80.921875 203.507812 80.921875 C 203.679688 81.179688 204.28125 80.875 204.367188 80.921875 C 204.710938 80.660156 204.582031 80.484375 204.453125 80.398438 C 204.28125 80.3125 204.625 80.265625 204.625 80.265625 C 204.753906 80.007812 204.710938 80.007812 204.625 79.832031 C 204.496094 79.394531 204.796875 79.046875 204.496094 78.832031 C 204.710938 78.785156 204.839844 78.832031 204.667969 78.699219 C 204.539062 78.613281 204.839844 78.570312 204.839844 78.570312 C 204.839844 78.480469 204.625 78.351562 204.667969 78.308594 C 204.710938 78.222656 205.011719 78.308594 204.96875 78.132812 C 204.796875 78.089844 204.667969 78.003906 204.710938 77.699219 C 205.054688 77.480469 204.753906 77.21875 204.839844 76.742188 C 204.882812 76.742188 205.011719 76.695312 205.011719 76.609375 C 205.054688 76.523438 205.011719 76.390625 205.054688 76.304688 C 205.097656 76.21875 205.359375 76.132812 205.359375 76.085938 L 205.054688 76.085938 C 204.882812 75.957031 205.226562 75.609375 205.226562 75.609375 C 205.269531 75.476562 205.054688 75.476562 205.054688 75.347656 C 205.144531 75.085938 205.359375 74.867188 205.488281 74.476562 C 205.488281 74.519531 205.269531 74.433594 205.269531 74.347656 C 205.269531 74.257812 205.488281 74.214844 205.488281 74.214844 C 205.53125 73.738281 205.574219 73.519531 205.617188 73.386719 C 205.832031 72.867188 205.789062 72.300781 206.003906 71.996094 C 206.089844 71.820312 206.089844 71.820312 206.003906 71.648438 C 205.917969 71.601562 206.089844 71.253906 206.046875 71.125 C 206.175781 71.039062 206.304688 70.6875 206.347656 70.558594 C 206.347656 70.515625 206.347656 70.472656 206.347656 70.425781 C 206.347656 70.339844 206.5625 70.339844 206.5625 70.296875 C 206.648438 70.035156 206.347656 69.992188 206.390625 69.773438 C 206.390625 69.773438 206.734375 69.6875 206.734375 69.644531 C 206.777344 69.46875 206.5625 69.425781 206.605469 69.296875 C 206.605469 69.164062 206.734375 69.121094 206.734375 69.078125 C 206.777344 68.859375 206.605469 68.730469 206.605469 68.644531 C 206.648438 68.597656 207.121094 68.597656 206.90625 68.339844 C 206.992188 68.207031 207.035156 67.945312 207.121094 67.683594 C 207.207031 67.335938 207.121094 66.769531 207.636719 66.8125 C 207.335938 67.859375 206.734375 68.992188 207.035156 69.773438 C 206.777344 69.949219 206.648438 70.253906 206.5625 70.558594 C 206.5625 70.558594 206.691406 70.558594 206.734375 70.558594 C 206.777344 70.6875 206.5625 70.777344 206.5625 70.734375 C 206.519531 70.949219 206.5625 71.082031 206.519531 71.296875 C 206.519531 71.386719 206.304688 71.429688 206.304688 71.429688 C 206.304688 71.515625 206.519531 71.734375 206.519531 71.648438 C 206.390625 72.167969 206.003906 72.5625 206.261719 72.953125 C 206.089844 72.953125 206.046875 72.777344 205.960938 72.953125 C 206.261719 72.996094 206.003906 73.257812 205.960938 73.386719 C 205.960938 73.386719 206.175781 73.386719 206.089844 73.519531 C 206.089844 73.5625 205.746094 73.519531 205.789062 73.648438 C 205.875 73.648438 205.960938 73.738281 205.789062 73.824219 C 205.617188 74.214844 206.003906 74.214844 205.917969 74.476562 C 205.402344 74.214844 205.917969 74.519531 205.574219 74.78125 C 205.789062 74.867188 205.746094 74.957031 205.574219 75.085938 C 205.488281 75.128906 205.703125 75.261719 205.746094 75.21875 C 205.617188 75.652344 205.316406 75.523438 205.574219 75.738281 C 205.960938 76.132812 205.1875 76.609375 205.1875 76.609375 C 205.144531 76.652344 205.1875 76.785156 205.1875 76.871094 C 205.144531 77.046875 205.359375 77.175781 205.359375 77.175781 C 205.316406 77.394531 205.054688 77.308594 205.011719 77.4375 C 205.402344 77.699219 204.796875 78.046875 205.144531 78.4375 C 204.710938 79.046875 204.839844 79.265625 204.925781 79.917969 C 204.882812 80.179688 204.667969 80.222656 204.625 80.398438 C 204.710938 80.398438 204.796875 80.441406 204.753906 80.527344 C 204.753906 80.703125 204.753906 80.875 204.753906 81.136719 C 204.882812 81.136719 204.96875 80.875 205.054688 81.136719 C 205.226562 81.136719 205.488281 81.007812 205.1875 80.921875 C 205.1875 80.136719 205.488281 79.65625 205.617188 79.136719 C 205.617188 78.960938 205.574219 78.832031 205.617188 78.699219 C 205.660156 78.570312 205.789062 78.394531 205.789062 78.308594 C 205.789062 78.222656 205.617188 78.132812 205.617188 78.132812 C 205.617188 78.046875 205.789062 78.003906 205.789062 77.871094 C 205.875 77.4375 205.917969 77.046875 206.003906 76.609375 C 206.089844 76.175781 206.304688 75.914062 206.347656 75.476562 C 206.390625 74.957031 206.648438 74.5625 206.734375 74.128906 C 207.035156 72.824219 207.335938 71.601562 207.636719 70.558594 C 207.851562 69.863281 207.980469 68.949219 208.195312 68.46875 C 208.324219 68.207031 208.324219 68.121094 208.367188 67.816406 C 208.410156 67.554688 208.582031 67.425781 208.367188 67.335938 C 208.28125 67.25 208.582031 67.207031 208.582031 67.207031 C 208.667969 66.726562 208.796875 66.074219 208.925781 65.855469 C 208.925781 65.8125 208.925781 65.726562 208.925781 65.683594 C 208.925781 65.59375 209.097656 65.59375 209.097656 65.550781 C 209.183594 65.203125 209.183594 64.898438 209.269531 64.59375 C 209.398438 64.113281 209.355469 64.160156 209.441406 63.855469 C 209.484375 63.808594 209.65625 63.722656 209.65625 63.722656 C 209.828125 63.199219 209.785156 62.679688 210.003906 62.460938 C 210.175781 62.328125 209.957031 62.023438 210.175781 61.894531 C 210.21875 61.894531 210.175781 61.546875 210.175781 61.503906 C 210.21875 61.371094 210.347656 61.414062 210.347656 61.371094 C 210.476562 60.847656 210.304688 60.804688 210.519531 60.675781 C 210.5625 60.632812 210.519531 60.285156 210.519531 60.242188 C 210.519531 60.109375 210.734375 60.109375 210.734375 60.066406 C 210.777344 59.933594 210.519531 59.980469 210.519531 59.933594 " fill-opacity="1" fill-rule="nonzero"/><path fill="#ffffff" d="M 203.9375 71.648438 C 203.894531 71.777344 203.980469 71.996094 204.109375 71.996094 C 204.195312 71.996094 204.195312 71.210938 203.9375 71.648438 " fill-opacity="1" fill-rule="nonzero"/><path fill="#ffffff" d="M 205.789062 64.59375 C 205.875 64.59375 206.003906 64.59375 206.089844 64.59375 C 206.089844 64.289062 206.132812 64.113281 206.261719 64.027344 C 205.703125 63.808594 206.132812 64.507812 205.789062 64.464844 C 205.789062 64.375 205.660156 64.246094 205.617188 64.464844 C 205.746094 64.464844 205.832031 64.464844 205.789062 64.59375 " fill-opacity="1" fill-rule="nonzero"/><g fill="#013b74" fill-opacity="1"><g transform="translate(63.691029, 158.98253)"><g><path d="M -4.8125 -14 C -5.257812 -14.863281 -5.675781 -15.710938 -6.0625 -16.546875 C -6.457031 -17.378906 -6.691406 -18.1875 -6.765625 -18.96875 C -6.835938 -19.75 -6.628906 -20.160156 -6.140625 -20.203125 C -6.023438 -20.210938 -5.847656 -20.203125 -5.609375 -20.171875 C -5.378906 -20.148438 -5.078125 -19.878906 -4.703125 -19.359375 C -4.328125 -18.847656 -3.960938 -18.210938 -3.609375 -17.453125 C -3.253906 -16.703125 -2.910156 -15.867188 -2.578125 -14.953125 C -2.242188 -14.046875 -1.945312 -13.160156 -1.6875 -12.296875 C -1.144531 -10.484375 -0.835938 -9.191406 -0.765625 -8.421875 C -0.703125 -7.648438 -0.71875 -6.804688 -0.8125 -5.890625 C -0.90625 -4.984375 -1.117188 -4.125 -1.453125 -3.3125 C -2.203125 -1.4375 -3.488281 -0.414062 -5.3125 -0.25 C -5.445312 -0.238281 -5.710938 -0.210938 -6.109375 -0.171875 C -6.503906 -0.140625 -7.085938 -0.253906 -7.859375 -0.515625 C -8.628906 -0.785156 -9.414062 -1.21875 -10.21875 -1.8125 C -11.019531 -2.40625 -11.773438 -3.117188 -12.484375 -3.953125 C -13.972656 -5.679688 -15.007812 -7.546875 -15.59375 -9.546875 C -15.8125 -10.242188 -15.941406 -10.828125 -15.984375 -11.296875 C -16.035156 -11.773438 -16.066406 -12.164062 -16.078125 -12.46875 C -16.097656 -12.78125 -16.109375 -13.101562 -16.109375 -13.4375 C -16.109375 -13.78125 -16.050781 -14.082031 -15.9375 -14.34375 C -15.695312 -14.9375 -15.160156 -15.273438 -14.328125 -15.359375 C -13.796875 -15.410156 -13.238281 -15.082031 -12.65625 -14.375 C -12.507812 -14.175781 -12.375 -14.007812 -12.25 -13.875 C -12.75 -13.71875 -13.164062 -13.53125 -13.5 -13.3125 C -13.84375 -13.101562 -13.988281 -12.695312 -13.9375 -12.09375 C -13.144531 -9.53125 -12.101562 -7.363281 -10.8125 -5.59375 C -9.363281 -3.582031 -7.941406 -2.640625 -6.546875 -2.765625 C -6.390625 -2.785156 -6.222656 -2.816406 -6.046875 -2.859375 C -4.628906 -2.992188 -3.671875 -3.628906 -3.171875 -4.765625 C -2.804688 -5.617188 -2.679688 -6.691406 -2.796875 -7.984375 C -2.910156 -9.285156 -3.160156 -10.398438 -3.546875 -11.328125 C -3.941406 -12.253906 -4.363281 -13.144531 -4.8125 -14 Z M -4.8125 -14 "/></g></g></g><g fill="#013b74" fill-opacity="1"><g transform="translate(62.219711, 135.601706)"><g><path d="M 3.28125 -16.25 C 3.59375 -15.96875 3.65625 -15.421875 3.46875 -14.609375 C 3.28125 -13.796875 2.894531 -13.453125 2.3125 -13.578125 C -0.238281 -14.171875 -2.003906 -14.523438 -2.984375 -14.640625 C -5.117188 -14.929688 -6.335938 -14.78125 -6.640625 -14.1875 C -7.296875 -12.707031 -7.738281 -11.472656 -7.96875 -10.484375 C -8.195312 -9.492188 -8.085938 -8.613281 -7.640625 -7.84375 C -7.191406 -7.070312 -6.316406 -6.359375 -5.015625 -5.703125 C -3.722656 -5.054688 -1.851562 -4.363281 0.59375 -3.625 L 0.015625 -1.109375 C -1.203125 -1.453125 -2.34375 -1.742188 -3.40625 -1.984375 C -4.46875 -2.234375 -5.734375 -2.503906 -7.203125 -2.796875 C -8.671875 -3.085938 -10.273438 -3.398438 -12.015625 -3.734375 C -14.035156 -4.085938 -15.734375 -4.421875 -17.109375 -4.734375 C -18.484375 -5.054688 -19.722656 -5.4375 -20.828125 -5.875 C -21.191406 -6.1875 -21.328125 -6.550781 -21.234375 -6.96875 C -21.117188 -7.457031 -20.847656 -7.800781 -20.421875 -8 C -20.003906 -8.195312 -19.65625 -8.28125 -19.375 -8.25 L -14.0625 -6.84375 C -12.039062 -6.375 -10.507812 -6.125 -9.46875 -6.09375 C -10.3125 -8.332031 -10.492188 -10.492188 -10.015625 -12.578125 C -9.859375 -13.242188 -9.644531 -13.945312 -9.375 -14.6875 C -8.144531 -16.113281 -7 -16.96875 -5.9375 -17.25 C -5.375 -17.363281 -4.804688 -17.390625 -4.234375 -17.328125 C -3.660156 -17.265625 -3.015625 -17.160156 -2.296875 -17.015625 C 0.203125 -16.578125 2.0625 -16.320312 3.28125 -16.25 Z M 3.28125 -16.25 "/></g></g></g><g fill="#013b74" fill-opacity="1"><g transform="translate(66.769183, 117.14046)"><g><path d="M 2.109375 -14.90625 C 3.566406 -12.15625 3.878906 -9.421875 3.046875 -6.703125 C 2.835938 -6.078125 2.601562 -5.535156 2.34375 -5.078125 C 2.09375 -4.628906 1.875 -4.253906 1.6875 -3.953125 C 1.507812 -3.660156 1.273438 -3.351562 0.984375 -3.03125 C 0.703125 -2.707031 0.390625 -2.441406 0.046875 -2.234375 C -0.765625 -1.753906 -1.539062 -1.722656 -2.28125 -2.140625 C -2.664062 -2.253906 -3.070312 -2.429688 -3.5 -2.671875 C -3.9375 -2.921875 -4.457031 -3.34375 -5.0625 -3.9375 C -5.664062 -4.539062 -6.238281 -5.335938 -6.78125 -6.328125 C -7.320312 -7.328125 -7.726562 -8.382812 -8 -9.5 C -8.601562 -11.875 -8.613281 -14.066406 -8.03125 -16.078125 C -7.84375 -16.660156 -7.625 -17.164062 -7.375 -17.59375 C -7.132812 -18.03125 -6.882812 -18.410156 -6.625 -18.734375 C -5.988281 -19.859375 -4.796875 -20.171875 -3.046875 -19.671875 C -1.941406 -19.390625 -0.515625 -18.78125 1.234375 -17.84375 C 2.992188 -16.90625 4.351562 -16.191406 5.3125 -15.703125 C 6.28125 -15.210938 7.207031 -14.847656 8.09375 -14.609375 L 7.125 -12.890625 C 6.550781 -13.117188 6.050781 -13.328125 5.625 -13.515625 C 5.195312 -13.710938 4.800781 -13.882812 4.4375 -14.03125 C 3.570312 -14.414062 2.796875 -14.707031 2.109375 -14.90625 Z M -2.4375 -17.34375 C -3.550781 -17.976562 -4.421875 -17.75 -5.046875 -16.65625 C -5.140625 -16.53125 -5.226562 -16.398438 -5.3125 -16.265625 C -6.113281 -14.847656 -6.285156 -12.972656 -5.828125 -10.640625 C -5.628906 -9.546875 -5.289062 -8.523438 -4.8125 -7.578125 C -4.144531 -6.171875 -3.378906 -5.21875 -2.515625 -4.71875 C -1.378906 -4.070312 -0.335938 -4.347656 0.609375 -5.546875 C 1.566406 -7.304688 1.722656 -9.414062 1.078125 -11.875 C 0.796875 -12.9375 0.382812 -13.921875 -0.15625 -14.828125 C -0.863281 -16.035156 -1.625 -16.875 -2.4375 -17.34375 Z M -2.4375 -17.34375 "/></g></g></g><g fill="#013b74" fill-opacity="1"><g transform="translate(76.950672, 100.366556)"><g><path d="M 1.9375 -6.453125 L -1.765625 -10.28125 C -2.359375 -10.875 -2.921875 -11.328125 -3.453125 -11.640625 L -7.125 -8 L -8.796875 -9.59375 L -5.25 -13.125 L -11.3125 -19.203125 C -11.40625 -19.390625 -11.453125 -19.625 -11.453125 -19.90625 C -11.441406 -20.351562 -11.363281 -20.648438 -11.21875 -20.796875 C -11.070312 -20.941406 -10.925781 -21.054688 -10.78125 -21.140625 C -10.644531 -21.222656 -10.421875 -21.234375 -10.109375 -21.171875 C -8.828125 -20.378906 -7.144531 -18.9375 -5.0625 -16.84375 C -4.539062 -16.320312 -4.003906 -15.832031 -3.453125 -15.375 C -3.015625 -15.945312 -2.539062 -16.484375 -2.03125 -16.984375 C -2.03125 -16.984375 -1.625 -17.390625 -0.8125 -18.203125 C -0.507812 -18.492188 -0.25 -18.785156 -0.03125 -19.078125 L 1.609375 -17.296875 L -1.953125 -13.953125 L 6.28125 -5.90625 C 6.125 -5.507812 5.941406 -5.207031 5.734375 -5 C 4.953125 -4.21875 3.6875 -4.703125 1.9375 -6.453125 Z M 1.9375 -6.453125 "/></g></g></g><g fill="#013b74" fill-opacity="1"><g transform="translate(88.268351, 89.009934)"><g><path d="M -8.328125 -17.484375 L -10.46875 -21.203125 C -10.644531 -21.515625 -10.675781 -21.816406 -10.5625 -22.109375 C -10.445312 -22.398438 -10.234375 -22.628906 -9.921875 -22.796875 C -9.609375 -22.972656 -9.273438 -23.046875 -8.921875 -23.015625 C -8.578125 -22.992188 -8.351562 -22.820312 -8.25 -22.5 L -1.140625 -9.984375 C -0.796875 -12.296875 0.101562 -14.578125 1.5625 -16.828125 C 2.789062 -18.703125 4.054688 -20 5.359375 -20.71875 C 6.503906 -21.34375 7.597656 -21.457031 8.640625 -21.0625 C 9.421875 -20.738281 10.078125 -20.09375 10.609375 -19.125 C 11.140625 -18.164062 11.414062 -17.226562 11.4375 -16.3125 C 11.46875 -15.40625 11.367188 -14.460938 11.140625 -13.484375 C 10.921875 -12.515625 10.582031 -11.539062 10.125 -10.5625 C 9.664062 -9.582031 9.175781 -8.65625 8.65625 -7.78125 C 7.644531 -6.125 6.570312 -4.613281 5.4375 -3.25 C 5.300781 -3.21875 5.101562 -3.117188 4.84375 -2.953125 C 4.582031 -2.785156 4.253906 -2.59375 3.859375 -2.375 C 2.804688 -1.800781 1.804688 -1.425781 0.859375 -1.25 C -0.335938 -2.988281 -1.972656 -5.75 -4.046875 -9.53125 Z M 2 -4.484375 C 2.113281 -4.265625 2.367188 -4.265625 2.765625 -4.484375 C 3.171875 -4.703125 3.625 -5.046875 4.125 -5.515625 C 4.625 -5.984375 5.179688 -6.632812 5.796875 -7.46875 C 6.421875 -8.3125 6.984375 -9.269531 7.484375 -10.34375 C 8.671875 -12.78125 9.253906 -15.207031 9.234375 -17.625 C 8.359375 -18.601562 7.289062 -18.75 6.03125 -18.0625 C 4.882812 -17.425781 3.820312 -16.285156 2.84375 -14.640625 C 1.476562 -12.273438 0.847656 -9.953125 0.953125 -7.671875 C 0.984375 -6.742188 1.203125 -5.910156 1.609375 -5.171875 C 1.710938 -4.984375 1.796875 -4.828125 1.859375 -4.703125 C 1.929688 -4.585938 1.976562 -4.515625 2 -4.484375 Z M 2 -4.484375 "/></g></g></g><g fill="#013b74" fill-opacity="1"><g transform="translate(106.874743, 79.158186)"><g><path d="M 0.546875 -6.53125 C 0.0664062 -9.113281 0.789062 -11.394531 2.71875 -13.375 C 4.269531 -14.945312 6.265625 -16.101562 8.703125 -16.84375 C 8.828125 -16.863281 9.128906 -16.914062 9.609375 -17 C 10.097656 -17.09375 10.769531 -17.070312 11.625 -16.9375 C 13.53125 -16.65625 14.957031 -15.800781 15.90625 -14.375 C 16.28125 -13.8125 16.503906 -13.316406 16.578125 -12.890625 C 16.660156 -12.460938 16.707031 -12.164062 16.71875 -12 C 17.226562 -9.257812 16.59375 -6.914062 14.8125 -4.96875 C 13.15625 -3.15625 10.878906 -1.984375 7.984375 -1.453125 C 5.921875 -1.066406 4.269531 -1.253906 3.03125 -2.015625 C 1.789062 -2.785156 0.960938 -4.289062 0.546875 -6.53125 Z M 2.953125 -6.171875 C 3.203125 -4.816406 3.726562 -3.96875 4.53125 -3.625 C 5.15625 -3.382812 6.109375 -3.382812 7.390625 -3.625 C 8.671875 -3.863281 9.785156 -4.171875 10.734375 -4.546875 C 11.679688 -4.921875 12.5 -5.414062 13.1875 -6.03125 C 14.625 -7.375 15.140625 -9.15625 14.734375 -11.375 C 14.484375 -12.6875 13.9375 -13.691406 13.09375 -14.390625 C 12.164062 -15.140625 11.082031 -15.398438 9.84375 -15.171875 C 9 -14.859375 8.164062 -14.535156 7.34375 -14.203125 C 6.519531 -13.867188 5.769531 -13.382812 5.09375 -12.75 C 3.632812 -11.363281 2.921875 -9.171875 2.953125 -6.171875 Z M 2.953125 -6.171875 "/></g></g></g><g fill="#013b74" fill-opacity="1"><g transform="translate(127.96483, 75.940555)"><g><path d="M 6.21875 -2.609375 L 6.8125 -7.890625 C 6.894531 -8.734375 6.882812 -9.46875 6.78125 -10.09375 L 1.640625 -10.59375 L 1.8125 -12.890625 L 6.78125 -12.390625 L 7.625 -20.9375 C 7.707031 -21.132812 7.863281 -21.320312 8.09375 -21.5 C 8.4375 -21.78125 8.710938 -21.910156 8.921875 -21.890625 C 9.128906 -21.867188 9.304688 -21.828125 9.453125 -21.765625 C 9.609375 -21.710938 9.757812 -21.539062 9.90625 -21.25 C 10.113281 -19.757812 10.070312 -17.546875 9.78125 -14.609375 C 9.707031 -13.878906 9.664062 -13.15625 9.65625 -12.4375 C 10.382812 -12.457031 11.101562 -12.4375 11.8125 -12.375 C 11.8125 -12.375 12.382812 -12.316406 13.53125 -12.203125 C 13.945312 -12.160156 14.335938 -12.140625 14.703125 -12.140625 L 14.359375 -9.765625 L 9.53125 -10.375 L 8.5625 1.078125 C 8.144531 1.222656 7.796875 1.28125 7.515625 1.25 C 6.410156 1.132812 5.976562 -0.148438 6.21875 -2.609375 Z M 6.21875 -2.609375 "/></g></g></g><g fill="#013b74" fill-opacity="1"><g transform="translate(144.146587, 77.85743)"><g/></g></g><g fill="#013b74" fill-opacity="1"><g transform="translate(171.875792, 287.470875)"><g><path d="M 6.828125 -3.640625 C 6.828125 -2.460938 6.488281 -1.5625 5.8125 -0.9375 C 5.144531 -0.3125 4.179688 0 2.921875 0 L 0.90625 0 L 0.90625 -7.140625 L 3.140625 -7.140625 C 4.304688 -7.140625 5.210938 -6.832031 5.859375 -6.21875 C 6.503906 -5.601562 6.828125 -4.742188 6.828125 -3.640625 Z M 5.25 -3.59375 C 5.25 -5.132812 4.570312 -5.90625 3.21875 -5.90625 L 2.40625 -5.90625 L 2.40625 -1.25 L 3.0625 -1.25 C 4.519531 -1.25 5.25 -2.03125 5.25 -3.59375 Z M 5.25 -3.59375 "/></g></g></g><g fill="#013b74" fill-opacity="1"><g transform="translate(179.275244, 287.470875)"><g><path d="M 3.046875 -4.5 C 2.722656 -4.5 2.472656 -4.398438 2.296875 -4.203125 C 2.117188 -4.003906 2.019531 -3.71875 2 -3.34375 L 4.078125 -3.34375 C 4.078125 -3.71875 3.984375 -4.003906 3.796875 -4.203125 C 3.609375 -4.398438 3.359375 -4.5 3.046875 -4.5 Z M 3.25 0.09375 C 2.375 0.09375 1.6875 -0.144531 1.1875 -0.625 C 0.695312 -1.113281 0.453125 -1.800781 0.453125 -2.6875 C 0.453125 -3.601562 0.679688 -4.3125 1.140625 -4.8125 C 1.597656 -5.3125 2.226562 -5.5625 3.03125 -5.5625 C 3.800781 -5.5625 4.398438 -5.34375 4.828125 -4.90625 C 5.265625 -4.46875 5.484375 -3.859375 5.484375 -3.078125 L 5.484375 -2.359375 L 1.953125 -2.359375 C 1.972656 -1.929688 2.097656 -1.597656 2.328125 -1.359375 C 2.566406 -1.128906 2.898438 -1.015625 3.328125 -1.015625 C 3.648438 -1.015625 3.957031 -1.046875 4.25 -1.109375 C 4.539062 -1.179688 4.847656 -1.289062 5.171875 -1.4375 L 5.171875 -0.28125 C 4.910156 -0.15625 4.628906 -0.0625 4.328125 0 C 4.035156 0.0625 3.675781 0.09375 3.25 0.09375 Z M 3.25 0.09375 "/></g></g></g><g fill="#013b74" fill-opacity="1"><g transform="translate(185.181139, 287.470875)"><g><path d="M 4.59375 -1.625 C 4.59375 -1.0625 4.394531 -0.632812 4 -0.34375 C 3.613281 -0.0507812 3.035156 0.09375 2.265625 0.09375 C 1.867188 0.09375 1.53125 0.0664062 1.25 0.015625 C 0.96875 -0.0351562 0.703125 -0.113281 0.453125 -0.21875 L 0.453125 -1.453125 C 0.734375 -1.316406 1.046875 -1.203125 1.390625 -1.109375 C 1.742188 -1.023438 2.050781 -0.984375 2.3125 -0.984375 C 2.851562 -0.984375 3.125 -1.140625 3.125 -1.453125 C 3.125 -1.578125 3.085938 -1.675781 3.015625 -1.75 C 2.941406 -1.820312 2.816406 -1.90625 2.640625 -2 C 2.460938 -2.09375 2.226562 -2.195312 1.9375 -2.3125 C 1.519531 -2.488281 1.210938 -2.648438 1.015625 -2.796875 C 0.816406 -2.953125 0.671875 -3.125 0.578125 -3.3125 C 0.492188 -3.507812 0.453125 -3.75 0.453125 -4.03125 C 0.453125 -4.519531 0.640625 -4.894531 1.015625 -5.15625 C 1.390625 -5.425781 1.921875 -5.5625 2.609375 -5.5625 C 3.265625 -5.5625 3.90625 -5.414062 4.53125 -5.125 L 4.078125 -4.0625 C 3.804688 -4.175781 3.550781 -4.269531 3.3125 -4.34375 C 3.070312 -4.414062 2.832031 -4.453125 2.59375 -4.453125 C 2.144531 -4.453125 1.921875 -4.335938 1.921875 -4.109375 C 1.921875 -3.972656 1.992188 -3.851562 2.140625 -3.75 C 2.285156 -3.65625 2.597656 -3.515625 3.078125 -3.328125 C 3.503906 -3.148438 3.816406 -2.984375 4.015625 -2.828125 C 4.210938 -2.679688 4.359375 -2.507812 4.453125 -2.3125 C 4.546875 -2.125 4.59375 -1.894531 4.59375 -1.625 Z M 4.59375 -1.625 "/></g></g></g><g fill="#013b74" fill-opacity="1"><g transform="translate(190.1499, 287.470875)"><g><path d="M 3.046875 -4.5 C 2.722656 -4.5 2.472656 -4.398438 2.296875 -4.203125 C 2.117188 -4.003906 2.019531 -3.71875 2 -3.34375 L 4.078125 -3.34375 C 4.078125 -3.71875 3.984375 -4.003906 3.796875 -4.203125 C 3.609375 -4.398438 3.359375 -4.5 3.046875 -4.5 Z M 3.25 0.09375 C 2.375 0.09375 1.6875 -0.144531 1.1875 -0.625 C 0.695312 -1.113281 0.453125 -1.800781 0.453125 -2.6875 C 0.453125 -3.601562 0.679688 -4.3125 1.140625 -4.8125 C 1.597656 -5.3125 2.226562 -5.5625 3.03125 -5.5625 C 3.800781 -5.5625 4.398438 -5.34375 4.828125 -4.90625 C 5.265625 -4.46875 5.484375 -3.859375 5.484375 -3.078125 L 5.484375 -2.359375 L 1.953125 -2.359375 C 1.972656 -1.929688 2.097656 -1.597656 2.328125 -1.359375 C 2.566406 -1.128906 2.898438 -1.015625 3.328125 -1.015625 C 3.648438 -1.015625 3.957031 -1.046875 4.25 -1.109375 C 4.539062 -1.179688 4.847656 -1.289062 5.171875 -1.4375 L 5.171875 -0.28125 C 4.910156 -0.15625 4.628906 -0.0625 4.328125 0 C 4.035156 0.0625 3.675781 0.09375 3.25 0.09375 Z M 3.25 0.09375 "/></g></g></g><g fill="#013b74" fill-opacity="1"><g transform="translate(196.055795, 287.470875)"><g><path d="M 5.828125 0 L 4.328125 0 L 4.328125 -3.1875 C 4.328125 -3.582031 4.253906 -3.878906 4.109375 -4.078125 C 3.972656 -4.273438 3.753906 -4.375 3.453125 -4.375 C 3.035156 -4.375 2.734375 -4.234375 2.546875 -3.953125 C 2.359375 -3.671875 2.265625 -3.207031 2.265625 -2.5625 L 2.265625 0 L 0.78125 0 L 0.78125 -5.453125 L 1.921875 -5.453125 L 2.125 -4.765625 L 2.203125 -4.765625 C 2.367188 -5.023438 2.597656 -5.222656 2.890625 -5.359375 C 3.179688 -5.492188 3.507812 -5.5625 3.875 -5.5625 C 4.507812 -5.5625 4.992188 -5.390625 5.328125 -5.046875 C 5.660156 -4.703125 5.828125 -4.207031 5.828125 -3.5625 Z M 5.828125 0 "/></g></g></g><g fill="#013b74" fill-opacity="1"><g transform="translate(202.625492, 287.470875)"><g><path d="M 2.078125 0 L 0 -5.453125 L 1.5625 -5.453125 L 2.609375 -2.34375 C 2.722656 -1.957031 2.796875 -1.585938 2.828125 -1.234375 L 2.859375 -1.234375 C 2.878906 -1.546875 2.953125 -1.914062 3.078125 -2.34375 L 4.125 -5.453125 L 5.6875 -5.453125 L 3.609375 0 Z M 2.078125 0 "/></g></g></g><g fill="#013b74" fill-opacity="1"><g transform="translate(208.311752, 287.470875)"><g><path d="M 1.96875 -2.734375 C 1.96875 -2.191406 2.054688 -1.78125 2.234375 -1.5 C 2.410156 -1.226562 2.695312 -1.09375 3.09375 -1.09375 C 3.5 -1.09375 3.785156 -1.226562 3.953125 -1.5 C 4.128906 -1.78125 4.21875 -2.191406 4.21875 -2.734375 C 4.21875 -3.273438 4.128906 -3.679688 3.953125 -3.953125 C 3.773438 -4.222656 3.488281 -4.359375 3.09375 -4.359375 C 2.695312 -4.359375 2.410156 -4.222656 2.234375 -3.953125 C 2.054688 -3.691406 1.96875 -3.285156 1.96875 -2.734375 Z M 5.75 -2.734375 C 5.75 -1.847656 5.515625 -1.15625 5.046875 -0.65625 C 4.578125 -0.15625 3.921875 0.09375 3.078125 0.09375 C 2.554688 0.09375 2.09375 -0.0195312 1.6875 -0.25 C 1.289062 -0.476562 0.984375 -0.804688 0.765625 -1.234375 C 0.554688 -1.660156 0.453125 -2.160156 0.453125 -2.734375 C 0.453125 -3.628906 0.679688 -4.320312 1.140625 -4.8125 C 1.609375 -5.3125 2.265625 -5.5625 3.109375 -5.5625 C 3.628906 -5.5625 4.085938 -5.445312 4.484375 -5.21875 C 4.890625 -4.988281 5.203125 -4.660156 5.421875 -4.234375 C 5.640625 -3.804688 5.75 -3.304688 5.75 -2.734375 Z M 5.75 -2.734375 "/></g></g></g><g fill="#013b74" fill-opacity="1"><g transform="translate(214.500739, 287.470875)"><g><path d="M 2.265625 0 L 0.78125 0 L 0.78125 -7.59375 L 2.265625 -7.59375 Z M 2.265625 0 "/></g></g></g><g fill="#013b74" fill-opacity="1"><g transform="translate(217.551311, 287.470875)"><g><path d="M 2.078125 0 L 0 -5.453125 L 1.5625 -5.453125 L 2.609375 -2.34375 C 2.722656 -1.957031 2.796875 -1.585938 2.828125 -1.234375 L 2.859375 -1.234375 C 2.878906 -1.546875 2.953125 -1.914062 3.078125 -2.34375 L 4.125 -5.453125 L 5.6875 -5.453125 L 3.609375 0 Z M 2.078125 0 "/></g></g></g><g fill="#013b74" fill-opacity="1"><g transform="translate(223.23757, 287.470875)"><g><path d="M 0.71875 -6.875 C 0.71875 -7.351562 0.988281 -7.59375 1.53125 -7.59375 C 2.070312 -7.59375 2.34375 -7.351562 2.34375 -6.875 C 2.34375 -6.644531 2.273438 -6.460938 2.140625 -6.328125 C 2.003906 -6.203125 1.800781 -6.140625 1.53125 -6.140625 C 0.988281 -6.140625 0.71875 -6.382812 0.71875 -6.875 Z M 2.265625 0 L 0.78125 0 L 0.78125 -5.453125 L 2.265625 -5.453125 Z M 2.265625 0 "/></g></g></g><g fill="#013b74" fill-opacity="1"><g transform="translate(226.288141, 287.470875)"><g><path d="M 2.515625 0.09375 C 1.867188 0.09375 1.363281 -0.148438 1 -0.640625 C 0.632812 -1.140625 0.453125 -1.832031 0.453125 -2.71875 C 0.453125 -3.613281 0.632812 -4.3125 1 -4.8125 C 1.375 -5.3125 1.890625 -5.5625 2.546875 -5.5625 C 3.234375 -5.5625 3.757812 -5.296875 4.125 -4.765625 L 4.171875 -4.765625 C 4.097656 -5.171875 4.0625 -5.53125 4.0625 -5.84375 L 4.0625 -7.59375 L 5.546875 -7.59375 L 5.546875 0 L 4.40625 0 L 4.125 -0.703125 L 4.0625 -0.703125 C 3.71875 -0.171875 3.203125 0.09375 2.515625 0.09375 Z M 3.03125 -1.09375 C 3.414062 -1.09375 3.695312 -1.203125 3.875 -1.421875 C 4.050781 -1.640625 4.144531 -2.015625 4.15625 -2.546875 L 4.15625 -2.703125 C 4.15625 -3.296875 4.066406 -3.71875 3.890625 -3.96875 C 3.710938 -4.21875 3.421875 -4.34375 3.015625 -4.34375 C 2.679688 -4.34375 2.421875 -4.203125 2.234375 -3.921875 C 2.046875 -3.640625 1.953125 -3.234375 1.953125 -2.703125 C 1.953125 -2.160156 2.046875 -1.753906 2.234375 -1.484375 C 2.421875 -1.222656 2.6875 -1.09375 3.03125 -1.09375 Z M 3.03125 -1.09375 "/></g></g></g><g fill="#013b74" fill-opacity="1"><g transform="translate(232.613794, 287.470875)"><g><path d="M 1.96875 -2.734375 C 1.96875 -2.191406 2.054688 -1.78125 2.234375 -1.5 C 2.410156 -1.226562 2.695312 -1.09375 3.09375 -1.09375 C 3.5 -1.09375 3.785156 -1.226562 3.953125 -1.5 C 4.128906 -1.78125 4.21875 -2.191406 4.21875 -2.734375 C 4.21875 -3.273438 4.128906 -3.679688 3.953125 -3.953125 C 3.773438 -4.222656 3.488281 -4.359375 3.09375 -4.359375 C 2.695312 -4.359375 2.410156 -4.222656 2.234375 -3.953125 C 2.054688 -3.691406 1.96875 -3.285156 1.96875 -2.734375 Z M 5.75 -2.734375 C 5.75 -1.847656 5.515625 -1.15625 5.046875 -0.65625 C 4.578125 -0.15625 3.921875 0.09375 3.078125 0.09375 C 2.554688 0.09375 2.09375 -0.0195312 1.6875 -0.25 C 1.289062 -0.476562 0.984375 -0.804688 0.765625 -1.234375 C 0.554688 -1.660156 0.453125 -2.160156 0.453125 -2.734375 C 0.453125 -3.628906 0.679688 -4.320312 1.140625 -4.8125 C 1.609375 -5.3125 2.265625 -5.5625 3.109375 -5.5625 C 3.628906 -5.5625 4.085938 -5.445312 4.484375 -5.21875 C 4.890625 -4.988281 5.203125 -4.660156 5.421875 -4.234375 C 5.640625 -3.804688 5.75 -3.304688 5.75 -2.734375 Z M 5.75 -2.734375 "/></g></g></g><g fill="#013b74" fill-opacity="1"><g transform="translate(238.802781, 287.470875)"><g/></g></g><g fill="#013b74" fill-opacity="1"><g transform="translate(241.399423, 287.470875)"><g><path d="M 3.78125 0.09375 C 3.132812 0.09375 2.628906 -0.132812 2.265625 -0.59375 L 2.1875 -0.59375 C 2.238281 -0.144531 2.265625 0.113281 2.265625 0.1875 L 2.265625 2.40625 L 0.78125 2.40625 L 0.78125 -5.453125 L 2 -5.453125 L 2.203125 -4.75 L 2.265625 -4.75 C 2.617188 -5.289062 3.132812 -5.5625 3.8125 -5.5625 C 4.457031 -5.5625 4.960938 -5.3125 5.328125 -4.8125 C 5.691406 -4.3125 5.875 -3.617188 5.875 -2.734375 C 5.875 -2.148438 5.785156 -1.644531 5.609375 -1.21875 C 5.441406 -0.789062 5.203125 -0.460938 4.890625 -0.234375 C 4.578125 -0.015625 4.207031 0.09375 3.78125 0.09375 Z M 3.34375 -4.375 C 2.96875 -4.375 2.695312 -4.257812 2.53125 -4.03125 C 2.363281 -3.800781 2.273438 -3.425781 2.265625 -2.90625 L 2.265625 -2.75 C 2.265625 -2.164062 2.351562 -1.742188 2.53125 -1.484375 C 2.707031 -1.234375 2.984375 -1.109375 3.359375 -1.109375 C 4.023438 -1.109375 4.359375 -1.660156 4.359375 -2.765625 C 4.359375 -3.296875 4.273438 -3.695312 4.109375 -3.96875 C 3.953125 -4.238281 3.695312 -4.375 3.34375 -4.375 Z M 3.34375 -4.375 "/></g></g></g><g fill="#013b74" fill-opacity="1"><g transform="translate(247.725075, 287.470875)"><g><path d="M 1.96875 -2.734375 C 1.96875 -2.191406 2.054688 -1.78125 2.234375 -1.5 C 2.410156 -1.226562 2.695312 -1.09375 3.09375 -1.09375 C 3.5 -1.09375 3.785156 -1.226562 3.953125 -1.5 C 4.128906 -1.78125 4.21875 -2.191406 4.21875 -2.734375 C 4.21875 -3.273438 4.128906 -3.679688 3.953125 -3.953125 C 3.773438 -4.222656 3.488281 -4.359375 3.09375 -4.359375 C 2.695312 -4.359375 2.410156 -4.222656 2.234375 -3.953125 C 2.054688 -3.691406 1.96875 -3.285156 1.96875 -2.734375 Z M 5.75 -2.734375 C 5.75 -1.847656 5.515625 -1.15625 5.046875 -0.65625 C 4.578125 -0.15625 3.921875 0.09375 3.078125 0.09375 C 2.554688 0.09375 2.09375 -0.0195312 1.6875 -0.25 C 1.289062 -0.476562 0.984375 -0.804688 0.765625 -1.234375 C 0.554688 -1.660156 0.453125 -2.160156 0.453125 -2.734375 C 0.453125 -3.628906 0.679688 -4.320312 1.140625 -4.8125 C 1.609375 -5.3125 2.265625 -5.5625 3.109375 -5.5625 C 3.628906 -5.5625 4.085938 -5.445312 4.484375 -5.21875 C 4.890625 -4.988281 5.203125 -4.660156 5.421875 -4.234375 C 5.640625 -3.804688 5.75 -3.304688 5.75 -2.734375 Z M 5.75 -2.734375 "/></g></g></g><g fill="#013b74" fill-opacity="1"><g transform="translate(253.914062, 287.470875)"><g><path d="M 3.828125 -5.5625 C 4.023438 -5.5625 4.191406 -5.546875 4.328125 -5.515625 L 4.21875 -4.125 C 4.09375 -4.15625 3.945312 -4.171875 3.78125 -4.171875 C 3.300781 -4.171875 2.925781 -4.046875 2.65625 -3.796875 C 2.394531 -3.554688 2.265625 -3.21875 2.265625 -2.78125 L 2.265625 0 L 0.78125 0 L 0.78125 -5.453125 L 1.90625 -5.453125 L 2.125 -4.546875 L 2.203125 -4.546875 C 2.367188 -4.847656 2.597656 -5.09375 2.890625 -5.28125 C 3.179688 -5.46875 3.492188 -5.5625 3.828125 -5.5625 Z M 3.828125 -5.5625 "/></g></g></g><g fill="#013b74" fill-opacity="1"><g transform="translate(258.453304, 287.470875)"><g/></g></g><g fill="#013b74" fill-opacity="1"><g transform="translate(261.049945, 287.470875)"><g><path d="M 3.9375 -5.984375 C 3.363281 -5.984375 2.921875 -5.769531 2.609375 -5.34375 C 2.296875 -4.914062 2.140625 -4.316406 2.140625 -3.546875 C 2.140625 -1.953125 2.738281 -1.15625 3.9375 -1.15625 C 4.4375 -1.15625 5.039062 -1.28125 5.75 -1.53125 L 5.75 -0.265625 C 5.164062 -0.0234375 4.515625 0.09375 3.796875 0.09375 C 2.753906 0.09375 1.957031 -0.21875 1.40625 -0.84375 C 0.851562 -1.476562 0.578125 -2.382812 0.578125 -3.5625 C 0.578125 -4.300781 0.710938 -4.945312 0.984375 -5.5 C 1.253906 -6.0625 1.640625 -6.488281 2.140625 -6.78125 C 2.648438 -7.082031 3.25 -7.234375 3.9375 -7.234375 C 4.625 -7.234375 5.316406 -7.066406 6.015625 -6.734375 L 5.53125 -5.515625 C 5.257812 -5.640625 4.988281 -5.75 4.71875 -5.84375 C 4.457031 -5.9375 4.195312 -5.984375 3.9375 -5.984375 Z M 3.9375 -5.984375 "/></g></g></g><g fill="#013b74" fill-opacity="1"><g transform="translate(267.419531, 287.470875)"><g><path d="M 4.25 0 L 3.953125 -0.75 L 3.921875 -0.75 C 3.671875 -0.425781 3.410156 -0.203125 3.140625 -0.078125 C 2.878906 0.0351562 2.535156 0.09375 2.109375 0.09375 C 1.585938 0.09375 1.175781 -0.0507812 0.875 -0.34375 C 0.570312 -0.644531 0.421875 -1.070312 0.421875 -1.625 C 0.421875 -2.207031 0.625 -2.632812 1.03125 -2.90625 C 1.4375 -3.1875 2.046875 -3.34375 2.859375 -3.375 L 3.8125 -3.40625 L 3.8125 -3.640625 C 3.8125 -4.191406 3.523438 -4.46875 2.953125 -4.46875 C 2.523438 -4.46875 2.015625 -4.335938 1.421875 -4.078125 L 0.921875 -5.078125 C 1.554688 -5.410156 2.253906 -5.578125 3.015625 -5.578125 C 3.742188 -5.578125 4.300781 -5.414062 4.6875 -5.09375 C 5.082031 -4.769531 5.28125 -4.285156 5.28125 -3.640625 L 5.28125 0 Z M 3.8125 -2.53125 L 3.234375 -2.515625 C 2.796875 -2.492188 2.472656 -2.410156 2.265625 -2.265625 C 2.054688 -2.128906 1.953125 -1.914062 1.953125 -1.625 C 1.953125 -1.195312 2.191406 -0.984375 2.671875 -0.984375 C 3.015625 -0.984375 3.289062 -1.082031 3.5 -1.28125 C 3.707031 -1.488281 3.8125 -1.753906 3.8125 -2.078125 Z M 3.8125 -2.53125 "/></g></g></g><g fill="#013b74" fill-opacity="1"><g transform="translate(273.457216, 287.470875)"><g><path d="M 0.71875 -6.875 C 0.71875 -7.351562 0.988281 -7.59375 1.53125 -7.59375 C 2.070312 -7.59375 2.34375 -7.351562 2.34375 -6.875 C 2.34375 -6.644531 2.273438 -6.460938 2.140625 -6.328125 C 2.003906 -6.203125 1.800781 -6.140625 1.53125 -6.140625 C 0.988281 -6.140625 0.71875 -6.382812 0.71875 -6.875 Z M 2.265625 0 L 0.78125 0 L 0.78125 -5.453125 L 2.265625 -5.453125 Z M 2.265625 0 "/></g></g></g><g fill="#013b74" fill-opacity="1"><g transform="translate(276.507788, 287.470875)"><g><path d="M 1.96875 -2.734375 C 1.96875 -2.191406 2.054688 -1.78125 2.234375 -1.5 C 2.410156 -1.226562 2.695312 -1.09375 3.09375 -1.09375 C 3.5 -1.09375 3.785156 -1.226562 3.953125 -1.5 C 4.128906 -1.78125 4.21875 -2.191406 4.21875 -2.734375 C 4.21875 -3.273438 4.128906 -3.679688 3.953125 -3.953125 C 3.773438 -4.222656 3.488281 -4.359375 3.09375 -4.359375 C 2.695312 -4.359375 2.410156 -4.222656 2.234375 -3.953125 C 2.054688 -3.691406 1.96875 -3.285156 1.96875 -2.734375 Z M 5.75 -2.734375 C 5.75 -1.847656 5.515625 -1.15625 5.046875 -0.65625 C 4.578125 -0.15625 3.921875 0.09375 3.078125 0.09375 C 2.554688 0.09375 2.09375 -0.0195312 1.6875 -0.25 C 1.289062 -0.476562 0.984375 -0.804688 0.765625 -1.234375 C 0.554688 -1.660156 0.453125 -2.160156 0.453125 -2.734375 C 0.453125 -3.628906 0.679688 -4.320312 1.140625 -4.8125 C 1.609375 -5.3125 2.265625 -5.5625 3.109375 -5.5625 C 3.628906 -5.5625 4.085938 -5.445312 4.484375 -5.21875 C 4.890625 -4.988281 5.203125 -4.660156 5.421875 -4.234375 C 5.640625 -3.804688 5.75 -3.304688 5.75 -2.734375 Z M 5.75 -2.734375 "/></g></g></g></svg>